<svg width="18" height="18" viewBox="0 0 18 18" fill="none" xmlns="http://www.w3.org/2000/svg">
<path d="M15.2172 2.76523C12.2821 -0.169667 7.76696 -0.613391 4.33413 1.43691L4.39328 1.10806C4.43025 0.896944 4.3821 0.67978 4.25936 0.504079C4.13662 0.328377 3.94929 0.208441 3.73834 0.170512C3.5274 0.132582 3.31002 0.179746 3.13376 0.301685C2.9575 0.423625 2.83672 0.610412 2.79783 0.821181L2.36535 3.22522C2.33093 3.41694 2.36669 3.61466 2.46609 3.78218C2.56549 3.94971 2.72189 4.07584 2.90666 4.13751L5.00733 4.83787C5.1083 4.87154 5.21491 4.885 5.32107 4.87747C5.42724 4.86994 5.53088 4.84158 5.62608 4.79399C5.72129 4.74641 5.80618 4.68054 5.87593 4.60015C5.94568 4.51975 5.99891 4.42641 6.03258 4.32545C6.06625 4.22448 6.07971 4.11787 6.07218 4.01171C6.06465 3.90554 6.03629 3.8019 5.9887 3.7067C5.94112 3.61149 5.87525 3.5266 5.79486 3.45685C5.71446 3.3871 5.62112 3.33387 5.52016 3.3002L4.79385 3.05807C7.63108 1.1155 11.5585 1.39885 14.0711 3.91114C16.9146 6.75484 16.9146 11.3821 14.0711 14.2258C11.2269 17.0696 6.60039 17.0696 3.75612 14.2258C2.76884 13.2351 2.08622 11.9822 1.78914 10.6155C1.49207 9.24879 1.59299 7.82557 2.07996 6.51446C2.11754 6.41465 2.13505 6.30841 2.1315 6.20182C2.12794 6.09524 2.10338 5.9904 2.05922 5.89333C2.01507 5.79625 1.95219 5.70884 1.87419 5.63612C1.79619 5.56339 1.7046 5.50678 1.60467 5.46952C1.50475 5.43226 1.39845 5.41509 1.29188 5.41899C1.1853 5.42289 1.08055 5.44779 0.983614 5.49226C0.886682 5.53673 0.79948 5.5999 0.727007 5.67813C0.654534 5.75637 0.598216 5.84814 0.561281 5.94819C-0.149252 7.85493 -0.186258 9.94734 0.456405 11.878C1.09907 13.8087 2.38274 15.4615 4.0943 16.562C5.80585 17.6625 7.84232 18.1445 9.8656 17.928C11.8889 17.7115 13.7772 16.8094 15.2172 15.3717C18.6925 11.8961 18.6925 6.2408 15.2172 2.76523Z" fill="#F19224"/>
<path d="M6.4826 13.1204C6.69753 13.1204 6.90365 13.0351 7.05562 12.8831C7.20759 12.7311 7.29297 12.525 7.29297 12.31V6.63735C7.29294 6.49394 7.25486 6.35311 7.18262 6.22923C7.11038 6.10535 7.00656 6.00285 6.88176 5.9322C6.75697 5.86155 6.61566 5.82528 6.47226 5.82709C6.32887 5.8289 6.18852 5.86872 6.06554 5.9425L4.03959 7.15807C3.85597 7.26901 3.72383 7.44822 3.67214 7.65643C3.62044 7.86463 3.65341 8.08484 3.76381 8.26878C3.87421 8.45271 4.05304 8.58537 4.26109 8.63767C4.46914 8.68998 4.68945 8.65765 4.8737 8.54779L5.67222 8.06858V12.31C5.67222 12.525 5.7576 12.7311 5.90958 12.8831C6.06155 13.0351 6.26767 13.1204 6.4826 13.1204Z" fill="#F19224"/>
<path d="M10.9398 13.1204C12.5301 13.1204 13.7761 11.5186 13.7761 9.47364C13.7761 7.42869 12.5302 5.8269 10.9398 5.8269C9.34937 5.8269 8.10344 7.42866 8.10344 9.47364C8.10344 11.5186 9.34948 13.1204 10.9398 13.1204ZM10.9398 7.44765C11.5147 7.44765 12.1553 8.27956 12.1553 9.47364C12.1553 10.6677 11.5147 11.4996 10.9398 11.4996C10.3648 11.4996 9.72418 10.6677 9.72418 9.47364C9.72418 8.2796 10.3649 7.44765 10.9398 7.44765Z" fill="#F19224"/>
</svg>
