<svg width="28" height="28" viewBox="0 0 28 28" fill="none" xmlns="http://www.w3.org/2000/svg">
<path d="M19.525 0H7.975C3.025 0 0 3.025 0 7.975V19.525C0 24.475 3.025 27.5 7.975 27.5H19.525C24.475 27.5 27.5 24.475 27.5 19.525V7.975C27.5 3.025 24.475 0 19.525 0ZM16.225 17.875C16.6375 18.2875 16.6375 18.975 16.225 19.3875C16.0875 19.525 15.8125 19.6625 15.5375 19.6625C15.2625 19.6625 14.9875 19.525 14.85 19.3875L10.0375 14.575C9.625 14.1625 9.625 13.475 10.0375 13.0625L14.85 8.25C15.2625 7.8375 15.95 7.8375 16.3625 8.25C16.775 8.6625 16.775 9.35 16.3625 9.7625L12.2375 13.8875L16.225 17.875Z" fill="#000"/>
</svg>
