<svg width="28" height="28" viewBox="0 0 28 28" fill="none" xmlns="http://www.w3.org/2000/svg">
<rect width="27.5" height="27.5" rx="5" fill="#000"/>
<path d="M18.972 8.251C18.7425 8.12325 18.49 8.04201 18.229 8.01193C17.968 7.98184 17.7036 8.0035 17.451 8.07567C17.1984 8.14783 16.9624 8.26908 16.7567 8.43249C16.551 8.5959 16.3795 8.79826 16.252 9.028L12.539 15.71L10.414 13.585C10.2295 13.394 10.0089 13.2416 9.76485 13.1368C9.52084 13.032 9.2584 12.9768 8.99284 12.9745C8.72728 12.9722 8.46392 13.0228 8.21813 13.1234C7.97234 13.2239 7.74904 13.3724 7.56125 13.5602C7.37347 13.748 7.22496 13.9713 7.1244 14.2171C7.02384 14.4629 6.97323 14.7262 6.97554 14.9918C6.97785 15.2574 7.03302 15.5198 7.13784 15.7638C7.24266 16.0078 7.39502 16.2285 7.58604 16.413L11.586 20.413C11.964 20.792 12.474 21 13 21L13.277 20.98C13.5836 20.9371 13.876 20.8237 14.1313 20.6486C14.3865 20.4735 14.5977 20.2415 14.748 19.971L19.748 10.971C19.8757 10.7415 19.9569 10.489 19.987 10.2281C20.0171 9.96715 19.9955 9.70286 19.9234 9.45028C19.8513 9.1977 19.7302 8.96179 19.567 8.75602C19.4038 8.55024 19.2016 8.37864 18.972 8.251Z" fill="white"/>
</svg>
