<svg width="14" height="13" viewBox="0 0 14 13" fill="none" xmlns="http://www.w3.org/2000/svg">
<path d="M12.972 0.251002C12.7425 0.123254 12.49 0.0420148 12.229 0.0119294C11.968 -0.0181561 11.7036 0.00350228 11.451 0.0756663C11.1984 0.14783 10.9624 0.269084 10.7567 0.432494C10.551 0.595904 10.3795 0.798264 10.252 1.028L6.53904 7.71L4.41404 5.585C4.22955 5.39398 4.00886 5.24162 3.76485 5.1368C3.52084 5.03198 3.2584 4.97681 2.99284 4.9745C2.72728 4.97219 2.46392 5.0228 2.21813 5.12336C1.97234 5.22392 1.74904 5.37243 1.56125 5.56021C1.37347 5.748 1.22496 5.9713 1.1244 6.21709C1.02384 6.46289 0.973232 6.72625 0.975539 6.9918C0.977847 7.25736 1.03302 7.5198 1.13784 7.76381C1.24266 8.00782 1.39502 8.22851 1.58604 8.413L5.58604 12.413C5.96404 12.792 6.47404 13 7.00004 13L7.27704 12.98C7.58359 12.9371 7.876 12.8237 8.13126 12.6486C8.38652 12.4735 8.59765 12.2415 8.74804 11.971L13.748 2.971C13.8757 2.74145 13.9569 2.48901 13.987 2.22808C14.0171 1.96715 13.9955 1.70286 13.9234 1.45028C13.8513 1.1977 13.7302 0.96179 13.567 0.756017C13.4038 0.550244 13.2016 0.37864 12.972 0.251002Z" fill="#3C62DD"/>
</svg>
