<svg width="14" height="13" viewBox="0 0 14 13" fill="none" xmlns="http://www.w3.org/2000/svg">
<path d="M13.0607 2.56055L9.12171 6.49991L13.0607 10.4391C13.6466 11.0252 13.6466 11.9746 13.0607 12.5608C12.7679 12.8535 12.3841 13 12.0005 13C11.6162 13 11.2324 12.8537 10.9399 12.5608L7.00006 8.62115L3.06055 12.5607C2.76784 12.8535 2.384 13 2.00004 13C1.6162 13 1.23262 12.8537 0.939648 12.5607C0.353749 11.9749 0.353749 11.0254 0.939648 10.439L4.87848 6.49987L0.939424 2.56055C0.353525 1.97465 0.353525 1.02499 0.939424 0.439088C1.52521 -0.146363 2.47432 -0.146363 3.06033 0.439088L7.00002 4.37845L10.9394 0.439088C11.5255 -0.146363 12.4748 -0.146363 13.0604 0.439088C13.6466 1.02499 13.6466 1.97465 13.0607 2.56055Z" fill="#000"/>
</svg>
