<svg width="28" height="28" viewBox="0 0 28 28" fill="none" xmlns="http://www.w3.org/2000/svg">
<path d="M21.9415 0H5.55851C4.08473 0.00139423 2.67171 0.587469 1.62959 1.62959C0.587469 2.67171 0.00139423 4.08473 0 5.55851V21.9415C0.00139423 23.4153 0.587469 24.8283 1.62959 25.8704C2.67171 26.9125 4.08473 27.4986 5.55851 27.5H21.9415C23.4153 27.4986 24.8283 26.9125 25.8704 25.8704C26.9125 24.8283 27.4986 23.4153 27.5 21.9415V5.55851C27.4986 4.08473 26.9125 2.67171 25.8704 1.62959C24.8283 0.587469 23.4153 0.00139423 21.9415 0ZM21.8596 12.8665L14.4521 20.8649C14.3691 20.9524 14.2693 21.0223 14.1588 21.0705C14.0482 21.1187 13.9291 21.1443 13.8085 21.1457C13.7851 21.1457 13.7676 21.1399 13.75 21.1399C13.62 21.1481 13.4897 21.1278 13.3684 21.0803C13.2471 21.0328 13.1377 20.9592 13.0479 20.8649L5.64043 12.8665C5.52429 12.7413 5.44722 12.5849 5.41865 12.4165C5.39007 12.2481 5.41125 12.0751 5.47957 11.9186C5.54789 11.762 5.66039 11.6289 5.80329 11.5353C5.94618 11.4418 6.11326 11.392 6.28404 11.392H9.625V8.40213C9.625 8.16936 9.71747 7.94612 9.88206 7.78153C10.0467 7.61694 10.2699 7.52447 10.5027 7.52447H16.9973C17.2301 7.52447 17.4533 7.61694 17.6179 7.78153C17.7825 7.94612 17.875 8.16936 17.875 8.40213V11.392H21.216C21.3867 11.392 21.5538 11.4418 21.6967 11.5353C21.8396 11.6289 21.9521 11.762 22.0204 11.9186C22.0888 12.0751 22.1099 12.2481 22.0814 12.4165C22.0528 12.5849 21.9757 12.7413 21.8596 12.8665ZM16.9973 13.1473H19.2032L13.75 19.0335L8.29681 13.1473H10.5027C10.7354 13.1473 10.9587 13.0549 11.1233 12.8903C11.2879 12.7257 11.3803 12.5024 11.3803 12.2697V9.27979H16.1197V12.2697C16.1197 12.5024 16.2121 12.7257 16.3767 12.8903C16.5413 13.0549 16.7646 13.1473 16.9973 13.1473Z" fill="#FAC90A"/>
</svg>
