<svg width="18" height="17" viewBox="0 0 18 17" fill="none" xmlns="http://www.w3.org/2000/svg">
<path d="M9.29017 3.21942L1.34892 11.1607C1.0563 11.4538 0.87136 11.8373 0.824135 12.2488L0.50772 15.0271C0.487094 15.2225 0.507912 15.42 0.568815 15.6068C0.629717 15.7936 0.729335 15.9654 0.861161 16.1111C0.992987 16.2567 1.15406 16.373 1.33385 16.4521C1.51365 16.5313 1.70812 16.5717 1.90458 16.5706H2.06664L4.84492 16.2542C5.2548 16.2068 5.63744 16.0249 5.93308 15.7371L13.8743 7.78815L9.29017 3.21942Z" fill="#3C62DD"/>
<path d="M16.5601 2.548L14.5458 0.533742C14.3773 0.36457 14.1771 0.230336 13.9566 0.138743C13.736 0.0471493 13.4996 0 13.2609 0C13.0221 0 12.7857 0.0471493 12.5652 0.138743C12.3446 0.230336 12.1444 0.36457 11.9759 0.533742L10.1083 2.40136L14.6924 6.98553L16.5601 5.11791C16.7292 4.9494 16.8635 4.74916 16.9551 4.52865C17.0467 4.30814 17.0938 4.07172 17.0938 3.83295C17.0938 3.59418 17.0467 3.35776 16.9551 3.13725C16.8635 2.91675 16.7292 2.7165 16.5601 2.548Z" fill="#3C62DD"/>
</svg>
