<svg width="64" height="64" viewBox="0 0 64 64" fill="none" xmlns="http://www.w3.org/2000/svg">
<path d="M11 21.5H53V26.5H11V21.5Z" fill="white"/>
<path d="M56 14.46H29.48C28.95 14.46 28.44 14.25 28.07 13.87L23.37 9.16998C22.62 8.41998 21.61 8 20.54 8H8C5.78998 8 4 9.78998 4 12V27H9V21C9 20.45 9.45001 20 10 20H54C54.55 20 55 20.45 55 21V27H60V18.46C60 16.25 58.21 14.46 56 14.46Z" fill="white"/>
<path d="M4 52.5C4 54.71 5.78998 56.5 8 56.5H56C58.21 56.5 60 54.71 60 52.5V28.5H4V52.5ZM54 39.5H49C47.6878 39.4753 47.6853 37.5252 49 37.5H54C55.3122 37.5247 55.3147 39.4748 54 39.5ZM44 32.5H54C55.3106 32.5243 55.316 34.4746 54 34.5H44C42.6894 34.4757 42.684 32.5254 44 32.5Z" fill="white"/>
</svg>
