<svg width="35" height="35" viewBox="0 0 35 35" fill="none" xmlns="http://www.w3.org/2000/svg">
<rect width="35" height="35" rx="10" fill="#000"/>
<path d="M9.44 8L5 12.44V14.56L11.56 8H9.44ZM5 17.94V20.06L17.06 8H14.94L5 17.94ZM5 25.25C5 25.35 5.00533 25.4483 5.016 25.545L12.999 17.562C12.7355 17.0504 12.5725 16.493 12.519 15.92L5 23.44V25.25ZM17.42 11.02C17.9929 11.0732 18.5503 11.2358 19.062 11.499L22.56 8H20.438L17.42 11.02ZM10 23.94L6.332 27.607C6.746 27.857 7.232 28 7.75 28H8.06L10 26.06V23.94ZM21.918 19.643C21.6213 19.548 21.3116 19.4997 21 19.5H19.94L28.984 10.455C28.9947 10.5517 29 10.65 29 10.75V12.56L21.918 19.643ZM24 23.061V22.5C24 22.044 23.898 21.61 23.716 21.224L29 15.939V18.061L24 23.061ZM24 28H24.56L29 23.56V21.44L24 26.44V28ZM21.418 14.642C21.3133 14.1024 21.1106 13.5866 20.82 13.12L25.94 8H26.25C26.769 8 27.254 8.144 27.668 8.393L21.418 14.642ZM11 22.5V28H23V22.5C23 21.9696 22.7893 21.4609 22.4142 21.0858C22.0391 20.7107 21.5304 20.5 21 20.5H13C12.4696 20.5 11.9609 20.7107 11.5858 21.0858C11.2107 21.4609 11 21.9696 11 22.5ZM17 19C17.9283 19 18.8185 18.6313 19.4749 17.9749C20.1313 17.3185 20.5 16.4283 20.5 15.5C20.5 14.5717 20.1313 13.6815 19.4749 13.0251C18.8185 12.3687 17.9283 12 17 12C16.0717 12 15.1815 12.3687 14.5251 13.0251C13.8687 13.6815 13.5 14.5717 13.5 15.5C13.5 16.4283 13.8687 17.3185 14.5251 17.9749C15.1815 18.6313 16.0717 19 17 19Z" fill="white"/>
</svg>
