<svg width="35" height="35" viewBox="0 0 35 35" fill="none" xmlns="http://www.w3.org/2000/svg">
<rect width="35" height="35" rx="10" fill="#000"/>
<path fill-rule="evenodd" clip-rule="evenodd" d="M16.3213 28.2566C10.5117 27.5895 6 22.6549 6 16.6667C6 10.2233 11.2233 5 17.6667 5C24.1099 5 29.3333 10.2233 29.3333 16.6667C29.3333 22.6826 25.5035 22.1879 22.2324 21.7654C20.3458 21.5216 18.645 21.302 17.9722 22.3693C17.512 23.0992 18.0094 24.0094 18.6196 24.6196C19.382 25.382 19.382 26.618 18.6196 27.3804C18.0094 27.9906 17.1785 28.355 16.3213 28.2566ZM16.5992 10.8331C16.5992 11.7995 15.8156 12.5831 14.8492 12.5831C13.8827 12.5831 13.0992 11.7995 13.0992 10.8331C13.0992 9.86655 13.8827 9.08305 14.8492 9.08305C15.8156 9.08305 16.5992 9.86655 16.5992 10.8331ZM11.25 17.8333C12.2165 17.8333 13 17.0498 13 16.0833C13 15.1169 12.2165 14.3333 11.25 14.3333C10.2835 14.3333 9.5 15.1169 9.5 16.0833C9.5 17.0498 10.2835 17.8333 11.25 17.8333ZM24.0833 17.8333C25.0498 17.8333 25.8333 17.0498 25.8333 16.0833C25.8333 15.1169 25.0498 14.3333 24.0833 14.3333C23.1169 14.3333 22.3333 15.1169 22.3333 16.0833C22.3333 17.0498 23.1169 17.8333 24.0833 17.8333ZM20.5833 12.5833C21.5498 12.5833 22.3333 11.7998 22.3333 10.8333C22.3333 9.86682 21.5498 9.08331 20.5833 9.08331C19.6169 9.08331 18.8333 9.86682 18.8333 10.8333C18.8333 11.7998 19.6169 12.5833 20.5833 12.5833Z" fill="white"/>
</svg>
