<svg width="35" height="35" viewBox="0 0 35 35" fill="none" xmlns="http://www.w3.org/2000/svg">
<rect width="35" height="35" rx="10" fill="#000"/>
<path d="M16.7526 25.0247C16.4534 25.0221 16.2598 24.8821 16.1544 24.5895C15.9438 24.0052 15.7331 23.4209 15.5301 22.834C15.4904 22.7192 15.4373 22.6812 15.314 22.6815C13.5839 22.6861 11.8537 22.6859 10.1236 22.6819C10.0019 22.6816 9.94514 22.7153 9.9044 22.8339C9.70636 23.4104 9.49926 23.984 9.29207 24.5573C9.16729 24.9027 8.98711 25.0252 8.62247 25.0251C8.05715 25.025 7.49189 25.027 6.92657 25.0248C6.42961 25.0228 6.16504 24.6518 6.33051 24.183C6.75009 22.9945 10.5295 12.3626 10.7181 11.8364C10.9325 11.238 11.3121 10.968 11.9436 10.9663C12.4632 10.9648 12.9828 10.9647 13.5024 10.9664C14.1157 10.9685 14.4987 11.2397 14.7122 11.812C14.8406 12.1563 18.7627 23.2072 19.1033 24.1751C19.2727 24.656 19.0112 25.022 18.5 25.025C18.2029 25.0268 17.0381 25.0272 16.7526 25.0247ZM12.7146 15.0146C12.1408 16.6177 11.5851 18.1701 11.0241 19.7375H14.4136C13.8493 18.1688 13.2911 16.6173 12.7146 15.0146Z" fill="white"/>
<path d="M29.713 15.1608C29.713 14.7082 29.4821 14.4746 29.0306 14.4712C28.7219 14.4691 28.4136 14.4702 28.1053 14.4702C27.6322 14.4702 27.4397 14.6305 27.3564 15.1138C27.2927 15.0823 27.2427 15.0576 27.193 15.0323C25.7559 14.3023 24.2996 14.2636 22.8735 15.0169C21.2959 15.8504 20.4566 17.1936 20.3531 18.9791C20.3267 19.4344 20.3497 19.8924 20.3429 20.3491C20.3364 20.8157 20.396 21.2757 20.5457 21.7139C21.1065 23.3576 22.2182 24.4312 23.9057 24.8807C24.8323 25.1273 25.748 25.0588 26.6411 24.7152C26.8765 24.6248 27.1026 24.5114 27.3335 24.4086C27.4099 24.8827 27.7381 25.0468 28.0851 25.0341C28.3989 25.0232 28.7137 25.0235 29.0275 25.0321C29.4403 25.043 29.7202 24.7532 29.7188 24.3428C29.7082 21.2823 29.713 18.2213 29.713 15.1608ZM26.7833 20.3285C26.7833 21.3004 25.9957 22.0883 25.0235 22.0883C24.0516 22.0883 23.2637 21.3004 23.2637 20.3285V19.1624C23.2637 18.1902 24.0516 17.4022 25.0235 17.4022C25.5096 17.4022 25.9495 17.5992 26.2681 17.9178C26.5863 18.2364 26.7833 18.6762 26.7833 19.1624V20.3285H26.7833Z" fill="white"/>
</svg>
