<svg width="74" height="74" viewBox="0 0 74 74" fill="none" xmlns="http://www.w3.org/2000/svg">
<path d="M52.6279 9H21.3721C18.0917 9.00276 14.9464 10.3071 12.6267 12.6267C10.3071 14.9464 9.00276 18.0917 9 21.3721V52.6279C9.00276 55.9083 10.3071 59.0536 12.6267 61.3733C14.9464 63.6929 18.0917 64.9972 21.3721 65H52.6279C55.9083 64.9972 59.0536 63.6929 61.3733 61.3733C63.6929 59.0536 64.9972 55.9083 65 52.6279V21.3721C64.9972 18.0917 63.6929 14.9464 61.3733 12.6267C59.0536 10.3071 55.9083 9.00276 52.6279 9ZM61.093 52.6279C61.0889 54.8717 60.1957 57.0225 58.6091 58.6091C57.0225 60.1957 54.8717 61.0889 52.6279 61.093H21.3721C19.1283 61.0889 16.9775 60.1957 15.3909 58.6091C13.8043 57.0225 12.9111 54.8717 12.907 52.6279V21.3721C12.9111 19.1283 13.8043 16.9775 15.3909 15.3909C16.9775 13.8043 19.1283 12.9111 21.3721 12.907H52.6279C54.8717 12.9111 57.0225 13.8043 58.6091 15.3909C60.1957 16.9775 61.0889 19.1283 61.093 21.3721V52.6279Z" fill="white"/>
<path d="M47.4186 31.1395C51.3745 31.1395 54.5814 27.9326 54.5814 23.9767C54.5814 20.0208 51.3745 16.8139 47.4186 16.8139C43.4627 16.8139 40.2558 20.0208 40.2558 23.9767C40.2558 27.9326 43.4627 31.1395 47.4186 31.1395Z" fill="white"/>
<path d="M49.3721 63.0465C49.3787 63.7068 49.291 64.3646 49.1116 65H21.3721C18.0917 64.9972 14.9464 63.6929 12.6267 61.3733C10.3071 59.0536 9.00276 55.9083 9 52.6279V37.9377C10.257 37.3099 11.5638 36.7871 12.907 36.3749C16.9437 35.0986 21.2171 34.7539 25.4062 35.3666C29.5952 35.9794 33.5909 37.5336 37.0929 39.9126C40.595 42.2916 43.5122 45.4333 45.6255 49.1018C47.7387 52.7703 48.9929 56.8701 49.2939 61.093C49.346 61.7442 49.3721 62.3953 49.3721 63.0465Z" fill="white"/>
<path d="M65 45.2828V52.6279C64.9972 55.9083 63.6929 59.0536 61.3733 61.3732C59.0536 63.6929 55.9083 64.9972 52.6279 65H51.7684C51.9048 64.3577 51.9746 63.7031 51.9767 63.0465C51.9767 62.3172 51.9507 61.614 51.8986 60.9107C51.4868 54.8319 49.2439 49.0203 45.4651 44.2409C48.1945 43.3298 51.0528 42.8637 53.9302 42.8605C56.3522 42.8569 58.7628 43.19 61.093 43.8502C62.4366 44.2066 63.7445 44.6861 65 45.2828Z" fill="white"/>
</svg>
