<svg width="402" height="470" viewBox="0 0 402 470" fill="none" xmlns="http://www.w3.org/2000/svg">
<path d="M380.779 1H244.036H21.2205C9.51949 1 0 10.2036 0 21.5164V136.082C0 147.395 9.51949 156.598 21.2205 156.598H190.886C208.536 156.598 222.815 170.404 222.815 187.469V449.484C222.815 460.796 232.335 470 244.036 470H380.779C392.481 470 402 460.796 402 449.484V135.986V21.5164C402 10.2036 392.481 1 380.779 1Z" fill="#FAC90A"/>
<path fill-rule="evenodd" clip-rule="evenodd" d="M29 0V42.5C29 53.8218 38.1782 63 49.5 63C60.8218 63 70 53.8218 70 42.5V0H29Z" fill="#3C62DD"/>
<path d="M45.9413 23.2599C47.525 20.42 48.3163 19 49.5 19C50.6837 19 51.475 20.42 53.0587 23.2599L53.4687 23.9949C53.9186 24.8024 54.1436 25.2061 54.4936 25.4723C54.8436 25.7386 55.2811 25.8373 56.1561 26.0348L56.9511 26.2148C60.026 26.9111 61.5622 27.2586 61.9285 28.4348C62.2935 29.6098 61.246 30.836 59.1498 33.2872L58.6073 33.9209C58.0123 34.6171 57.7136 34.9659 57.5798 35.3959C57.4461 35.8271 57.4911 36.2921 57.5811 37.2208L57.6636 38.0671C57.9798 41.3382 58.1385 42.9732 57.1811 43.6994C56.2236 44.4269 54.7836 43.7632 51.9062 42.4382L51.16 42.0957C50.3425 41.7182 49.9337 41.5307 49.5 41.5307C49.0663 41.5307 48.6575 41.7182 47.84 42.0957L47.0951 42.4382C44.2164 43.7632 42.7764 44.4257 41.8202 43.7007C40.8615 42.9732 41.0202 41.3382 41.3364 38.0671L41.4189 37.2221C41.5089 36.2921 41.5539 35.8271 41.4189 35.3971C41.2864 34.9659 40.9877 34.6171 40.3927 33.9221L39.8502 33.2872C37.754 30.8372 36.7066 29.611 37.0715 28.4348C37.4378 27.2586 38.9752 26.9098 42.0502 26.2148L42.8452 26.0348C43.7189 25.8373 44.1551 25.7386 44.5064 25.4723C44.8564 25.2061 45.0814 24.8024 45.5313 23.9949L45.9413 23.2599Z" fill="white"/>
<path d="M125.128 43.624C125.213 44.0293 125.213 44.456 125.128 44.904C125.085 45.1173 125.043 45.3307 125 45.544C124.979 45.736 124.947 45.9387 124.904 46.152L124.872 46.28C124.573 47.6027 124.232 49 123.848 50.472C123.485 51.9227 123.155 53.2987 122.856 54.6C122.6 55.6667 122.333 56.84 122.056 58.12C121.779 59.4 121.491 60.5733 121.192 61.64C121.085 62.0027 120.968 62.3653 120.84 62.728C120.733 63.0907 120.595 63.4533 120.424 63.816C120.275 64.136 120.093 64.424 119.88 64.68C119.688 64.9147 119.464 65.0853 119.208 65.192C118.952 65.32 118.675 65.3627 118.376 65.32C118.099 65.2987 117.789 65.1707 117.448 64.936C116.936 64.5733 116.552 64.072 116.296 63.432C116.061 62.792 115.816 62.2053 115.56 61.672C115.475 61.5227 115.347 61.192 115.176 60.68C115.005 60.168 114.824 59.6133 114.632 59.016C114.44 58.3973 114.248 57.8107 114.056 57.256C113.885 56.68 113.736 56.2533 113.608 55.976C113.416 56.4453 113.224 56.9787 113.032 57.576C112.84 58.1733 112.659 58.76 112.488 59.336C112.317 59.912 112.157 60.4347 112.008 60.904C111.88 61.352 111.784 61.6827 111.72 61.896C111.549 62.3227 111.357 62.792 111.144 63.304C110.952 63.816 110.707 64.2533 110.408 64.616C110.131 64.9787 109.789 65.2133 109.384 65.32C108.979 65.448 108.499 65.3307 107.944 64.968C107.517 64.712 107.219 64.3493 107.048 63.88C106.941 63.5813 106.835 63.2933 106.728 63.016C106.621 62.7387 106.536 62.4507 106.472 62.152L105.832 59.752L104.52 54.6C104.349 53.9387 104.179 53.2667 104.008 52.584C103.859 51.88 103.677 51.1547 103.464 50.408C103.357 50.0453 103.261 49.6933 103.176 49.352C103.112 48.9893 103.037 48.6053 102.952 48.2C102.888 47.7733 102.803 47.2933 102.696 46.76C102.611 46.2267 102.504 45.608 102.376 44.904C102.333 44.6693 102.301 44.456 102.28 44.264C102.28 44.0507 102.301 43.8373 102.344 43.624C102.387 43.304 102.536 43.0267 102.792 42.792C102.899 42.6853 103.027 42.6 103.176 42.536C103.325 42.472 103.485 42.4187 103.656 42.376C103.912 42.2907 104.179 42.248 104.456 42.248C104.712 42.248 104.979 42.3333 105.256 42.504C105.448 42.6107 105.597 42.7493 105.704 42.92L106.088 43.592C106.131 43.7413 106.173 43.88 106.216 44.008C106.259 44.1147 106.301 44.232 106.344 44.36C106.387 44.5093 106.419 44.648 106.44 44.776C106.461 44.8827 106.483 44.9893 106.504 45.096C106.696 46.2053 106.931 47.2827 107.208 48.328C107.485 49.3733 107.741 50.376 107.976 51.336C108.061 51.72 108.168 52.2 108.296 52.776C108.424 53.3307 108.552 53.9173 108.68 54.536C108.808 55.1333 108.936 55.7093 109.064 56.264C109.192 56.8187 109.32 57.256 109.448 57.576C109.725 56.616 110.003 55.656 110.28 54.696C110.579 53.736 110.899 52.7653 111.24 51.784C111.411 51.272 111.581 50.8133 111.752 50.408C111.944 49.9813 112.157 49.6293 112.392 49.352C112.627 49.0747 112.893 48.8933 113.192 48.808C113.491 48.7227 113.843 48.7547 114.248 48.904C114.611 49.0533 114.931 49.3733 115.208 49.864C115.485 50.3547 115.731 50.856 115.944 51.368C116.136 51.8373 116.317 52.3387 116.488 52.872C116.68 53.384 116.861 53.896 117.032 54.408C117.224 54.8987 117.405 55.368 117.576 55.816C117.747 56.264 117.917 56.648 118.088 56.968C118.152 56.7333 118.227 56.4347 118.312 56.072C118.397 55.7093 118.483 55.3253 118.568 54.92C118.675 54.4933 118.771 54.0773 118.856 53.672C118.941 53.2667 119.027 52.8933 119.112 52.552C119.389 51.4 119.677 50.248 119.976 49.096C120.275 47.9227 120.563 46.7707 120.84 45.64L121 45.096C121.043 44.9893 121.064 44.8827 121.064 44.776C121.085 44.648 121.117 44.5093 121.16 44.36C121.203 44.232 121.245 44.1147 121.288 44.008C121.331 43.88 121.373 43.7413 121.416 43.592C121.459 43.4853 121.501 43.3787 121.544 43.272C121.608 43.144 121.683 43.0267 121.768 42.92C121.832 42.8133 121.907 42.728 121.992 42.664C122.077 42.6 122.163 42.5467 122.248 42.504C122.547 42.3333 122.803 42.248 123.016 42.248C123.293 42.248 123.56 42.2907 123.816 42.376C124.157 42.44 124.467 42.5787 124.744 42.792C124.957 43.0053 125.085 43.2827 125.128 43.624ZM137.477 60.616C137.733 60.552 137.989 60.5093 138.245 60.488C138.522 60.4667 138.768 60.4987 138.981 60.584C139.216 60.6693 139.408 60.8187 139.557 61.032C139.706 61.224 139.781 61.5013 139.781 61.864C139.781 62.12 139.717 62.3653 139.589 62.6C139.461 62.8347 139.301 63.048 139.109 63.24C138.917 63.432 138.704 63.6027 138.469 63.752C138.234 63.88 138.01 63.9867 137.797 64.072C137.178 64.3493 136.464 64.5627 135.653 64.712C134.864 64.8613 134.042 64.9147 133.189 64.872C132.037 64.8293 130.928 64.6053 129.861 64.2C128.816 63.7733 127.994 63.08 127.397 62.12C126.842 61.1813 126.512 60.136 126.405 58.984C126.298 57.832 126.352 56.744 126.565 55.72C126.8 54.4827 127.194 53.48 127.749 52.712C128.325 51.9227 129.008 51.2933 129.797 50.824C130.757 50.2693 131.834 49.9813 133.029 49.96C134.224 49.9387 135.365 50.1733 136.453 50.664C137.178 50.984 137.829 51.4213 138.405 51.976C138.981 52.5093 139.418 53.16 139.717 53.928C139.802 54.12 139.866 54.3547 139.909 54.632C139.973 54.9093 140.016 55.208 140.037 55.528C140.058 55.8267 140.058 56.1253 140.037 56.424C140.016 56.7227 139.962 56.9893 139.877 57.224C139.749 57.608 139.589 57.9067 139.397 58.12C139.205 58.3333 138.96 58.4933 138.661 58.6C138.362 58.7067 138 58.7813 137.573 58.824C137.168 58.8453 136.677 58.8667 136.101 58.888C135.589 58.9093 135.109 58.92 134.661 58.92C134.213 58.92 133.754 58.92 133.285 58.92C132.816 58.8987 132.325 58.888 131.813 58.888C131.322 58.8667 130.768 58.8453 130.149 58.824C130.085 59.2507 130.138 59.624 130.309 59.944C130.501 60.2427 130.757 60.4987 131.077 60.712C131.397 60.904 131.76 61.0533 132.165 61.16C132.57 61.2667 132.965 61.3307 133.349 61.352C134.074 61.3947 134.768 61.3413 135.429 61.192C136.09 61.0213 136.773 60.8293 137.477 60.616ZM136.101 54.408C135.696 53.9387 135.269 53.5973 134.821 53.384C134.48 53.2347 134.117 53.1707 133.733 53.192C133.37 53.192 133.018 53.2453 132.677 53.352C132.058 53.5013 131.536 53.8213 131.109 54.312C131.066 54.3547 130.992 54.4613 130.885 54.632C130.778 54.7813 130.672 54.9413 130.565 55.112C130.48 55.2827 130.416 55.4427 130.373 55.592C130.33 55.7413 130.352 55.816 130.437 55.816H136.709C136.688 55.5173 136.634 55.272 136.549 55.08C136.464 54.8667 136.314 54.6427 136.101 54.408ZM147.567 62.44C147.546 62.5467 147.525 62.6533 147.503 62.76C147.503 62.8453 147.503 62.9413 147.503 63.048L147.311 63.72C147.269 63.8053 147.237 63.8587 147.215 63.88L147.119 64.072C147.013 64.3067 146.821 64.4987 146.543 64.648C146.031 64.904 145.487 64.968 144.911 64.84C144.549 64.7973 144.261 64.6907 144.047 64.52C143.834 64.3707 143.685 64.1893 143.599 63.976C143.514 63.7627 143.45 63.5493 143.407 63.336C143.343 63.1227 143.311 62.9307 143.311 62.76V44.84C143.311 44.6907 143.311 44.5627 143.311 44.456C143.333 44.328 143.354 44.2107 143.375 44.104C143.397 43.9547 143.418 43.8267 143.439 43.72C143.482 43.6133 143.525 43.496 143.567 43.368C143.631 43.1547 143.749 42.984 143.919 42.856C144.175 42.664 144.421 42.5573 144.655 42.536C144.805 42.4933 144.943 42.472 145.071 42.472C145.199 42.4507 145.349 42.44 145.519 42.44C145.818 42.44 146.159 42.5253 146.543 42.696C146.842 42.8667 147.055 43.1013 147.183 43.4C147.397 43.8267 147.503 44.2213 147.503 44.584C147.525 44.7973 147.535 45.1173 147.535 45.544C147.557 45.9707 147.567 46.2907 147.567 46.504V46.632C147.61 47.3147 147.631 47.976 147.631 48.616C147.631 49.2347 147.621 49.9173 147.599 50.664C147.599 51.3893 147.589 52.0933 147.567 52.776C147.567 53.4373 147.567 54.0987 147.567 54.76V61.48C147.567 61.5653 147.567 61.6507 147.567 61.736C147.589 61.8 147.599 61.8747 147.599 61.96C147.599 62.1733 147.589 62.3333 147.567 62.44ZM155.817 62.44C155.796 62.5467 155.775 62.6533 155.753 62.76C155.753 62.8453 155.753 62.9413 155.753 63.048L155.561 63.72C155.519 63.8053 155.487 63.8587 155.465 63.88L155.369 64.072C155.263 64.3067 155.071 64.4987 154.793 64.648C154.281 64.904 153.737 64.968 153.161 64.84C152.799 64.7973 152.511 64.6907 152.297 64.52C152.084 64.3707 151.935 64.1893 151.849 63.976C151.764 63.7627 151.7 63.5493 151.657 63.336C151.593 63.1227 151.561 62.9307 151.561 62.76V44.84C151.561 44.6907 151.561 44.5627 151.561 44.456C151.583 44.328 151.604 44.2107 151.625 44.104C151.647 43.9547 151.668 43.8267 151.689 43.72C151.732 43.6133 151.775 43.496 151.817 43.368C151.881 43.1547 151.999 42.984 152.169 42.856C152.425 42.664 152.671 42.5573 152.905 42.536C153.055 42.4933 153.193 42.472 153.321 42.472C153.449 42.4507 153.599 42.44 153.769 42.44C154.068 42.44 154.409 42.5253 154.793 42.696C155.092 42.8667 155.305 43.1013 155.433 43.4C155.647 43.8267 155.753 44.2213 155.753 44.584C155.775 44.7973 155.785 45.1173 155.785 45.544C155.807 45.9707 155.817 46.2907 155.817 46.504V46.632C155.86 47.3147 155.881 47.976 155.881 48.616C155.881 49.2347 155.871 49.9173 155.849 50.664C155.849 51.3893 155.839 52.0933 155.817 52.776C155.817 53.4373 155.817 54.0987 155.817 54.76V61.48C155.817 61.5653 155.817 61.6507 155.817 61.736C155.839 61.8 155.849 61.8747 155.849 61.96C155.849 62.1733 155.839 62.3333 155.817 62.44ZM170.34 52.68C170.511 52.9787 170.596 53.2987 170.596 53.64C170.618 53.9813 170.543 54.3013 170.372 54.6C170.18 54.984 169.903 55.2507 169.54 55.4C169.199 55.528 168.815 55.5387 168.388 55.432C168.196 55.3893 168.026 55.3147 167.876 55.208C167.727 55.1013 167.567 54.9947 167.396 54.888C167.247 54.76 167.066 54.6427 166.852 54.536C166.66 54.4293 166.404 54.3547 166.084 54.312C165.764 54.2693 165.412 54.2693 165.028 54.312C164.666 54.3547 164.335 54.44 164.036 54.568C163.567 54.8027 163.194 55.1653 162.916 55.656C162.639 56.1253 162.458 56.6373 162.372 57.192C162.287 57.7253 162.298 58.2693 162.404 58.824C162.532 59.3787 162.767 59.848 163.108 60.232C163.364 60.5307 163.695 60.776 164.1 60.968C164.527 61.16 164.932 61.2773 165.316 61.32C165.679 61.3627 166.042 61.3627 166.404 61.32C166.767 61.256 167.119 61.1707 167.46 61.064C167.716 60.9573 168.004 60.8187 168.324 60.648C168.644 60.456 168.954 60.3387 169.252 60.296C169.636 60.296 169.935 60.4027 170.148 60.616C170.362 60.808 170.511 61.0533 170.596 61.352C170.682 61.6293 170.692 61.928 170.628 62.248C170.586 62.568 170.468 62.8453 170.276 63.08C170.02 63.4 169.658 63.7093 169.188 64.008C168.719 64.2853 168.271 64.488 167.844 64.616C167.332 64.7867 166.756 64.8827 166.116 64.904C165.498 64.9253 164.911 64.904 164.356 64.84C164.1 64.7973 163.834 64.744 163.556 64.68C163.279 64.616 163.012 64.5413 162.756 64.456C161.818 64.1147 161.028 63.6347 160.388 63.016C159.77 62.376 159.29 61.6613 158.948 60.872C158.628 60.0827 158.447 59.24 158.404 58.344C158.362 57.448 158.468 56.5627 158.724 55.688C158.959 54.856 159.247 54.152 159.588 53.576C159.951 53 160.367 52.5307 160.836 52.168C161.327 51.784 161.871 51.4853 162.468 51.272C163.066 51.0373 163.727 50.8347 164.452 50.664C165.199 50.5147 165.988 50.5147 166.82 50.664C167.652 50.8133 168.399 51.0907 169.06 51.496C169.572 51.7733 169.999 52.168 170.34 52.68ZM177.346 50.536C178.05 50.1947 178.786 49.9493 179.554 49.8C180.322 49.6507 181.079 49.6187 181.826 49.704C182.594 49.7893 183.33 49.992 184.034 50.312C184.759 50.632 185.42 51.08 186.018 51.656C186.508 52.1467 186.935 52.744 187.298 53.448C187.66 54.1307 187.927 54.8027 188.097 55.464C188.46 56.6373 188.514 57.8213 188.258 59.016C188.002 60.2107 187.564 61.32 186.946 62.344C186.647 62.8133 186.274 63.24 185.826 63.624C185.399 63.9867 184.94 64.2853 184.45 64.52C183.81 64.8187 183.116 65.0213 182.37 65.128C181.623 65.256 180.898 65.288 180.194 65.224C178.914 65.16 177.783 64.84 176.802 64.264C175.842 63.688 175.063 62.952 174.466 62.056C173.89 61.16 173.506 60.1467 173.314 59.016C173.143 57.864 173.218 56.6907 173.538 55.496C173.879 54.216 174.37 53.1813 175.01 52.392C175.671 51.5813 176.45 50.9627 177.346 50.536ZM178.306 54.824C177.986 55.1227 177.74 55.496 177.57 55.944C177.399 56.392 177.292 56.8613 177.25 57.352C177.207 57.8213 177.239 58.3013 177.346 58.792C177.474 59.2613 177.666 59.688 177.922 60.072C178.135 60.392 178.519 60.6587 179.074 60.872C179.628 61.0853 180.204 61.2133 180.802 61.256C181.484 61.2987 182.082 61.1173 182.594 60.712C183.106 60.2853 183.49 59.7627 183.746 59.144C184.023 58.5253 184.151 57.8533 184.13 57.128C184.108 56.4027 183.916 55.7413 183.554 55.144C183.298 54.7173 182.935 54.408 182.466 54.216C182.018 54.0027 181.538 53.896 181.026 53.896C180.535 53.8747 180.044 53.9493 179.554 54.12C179.063 54.2693 178.647 54.504 178.306 54.824ZM208.312 57.544C208.354 58.2267 208.376 58.8773 208.376 59.496C208.376 60.0933 208.354 60.7333 208.312 61.416C208.312 61.672 208.312 61.96 208.312 62.28C208.312 62.6 208.29 62.9093 208.248 63.208C208.205 63.5067 208.13 63.784 208.024 64.04C207.917 64.296 207.757 64.4987 207.544 64.648C207.288 64.8187 207 64.936 206.68 65C206.36 65.0427 206.061 65.0213 205.784 64.936C205.506 64.8507 205.261 64.6907 205.048 64.456C204.856 64.2213 204.749 63.8907 204.728 63.464C204.664 62.4827 204.632 61.5013 204.632 60.52C204.632 60.0293 204.621 59.56 204.6 59.112C204.6 58.664 204.61 58.0347 204.632 57.224C204.632 56.8187 204.6 56.36 204.536 55.848C204.472 55.3147 204.312 54.9413 204.056 54.728C203.864 54.5573 203.65 54.4613 203.416 54.44C203.181 54.3973 202.946 54.4187 202.712 54.504C202.498 54.5893 202.306 54.7493 202.136 54.984C201.965 55.1973 201.848 55.4747 201.784 55.816C201.784 56.0933 201.773 56.3813 201.752 56.68C201.752 56.9573 201.762 57.224 201.784 57.48C201.805 58.1627 201.816 58.8133 201.816 59.432C201.816 60.0293 201.805 60.6693 201.784 61.352C201.762 61.6293 201.752 61.928 201.752 62.248C201.773 62.568 201.773 62.888 201.752 63.208C201.73 63.5067 201.666 63.784 201.56 64.04C201.474 64.296 201.314 64.4987 201.08 64.648C200.824 64.8187 200.546 64.9253 200.248 64.968C199.97 64.9893 199.704 64.9467 199.448 64.84C199.213 64.712 199 64.52 198.808 64.264C198.637 64.008 198.541 63.6667 198.52 63.24C198.477 62.7493 198.445 62.3013 198.424 61.896C198.424 61.4693 198.424 61.0213 198.424 60.552C198.424 60.0613 198.434 59.56 198.456 59.048C198.477 58.5147 198.466 58.0027 198.424 57.512C198.424 57.3627 198.413 57.192 198.392 57C198.392 56.7867 198.381 56.5733 198.36 56.36C198.36 56.1467 198.338 55.944 198.296 55.752C198.274 55.5387 198.232 55.368 198.168 55.24C197.997 54.9413 197.688 54.7493 197.24 54.664C196.813 54.5787 196.45 54.6107 196.152 54.76C195.853 54.9093 195.629 55.1013 195.48 55.336C195.33 55.5707 195.224 55.8267 195.16 56.104C195.096 56.3813 195.064 56.68 195.064 57C195.064 57.2987 195.064 57.5867 195.064 57.864C195.064 59.2507 195.064 60.456 195.064 61.48C195.085 62.4827 194.978 63.2933 194.744 63.912C194.637 64.232 194.413 64.4773 194.072 64.648C193.752 64.8187 193.4 64.904 193.016 64.904C192.653 64.904 192.312 64.8187 191.992 64.648C191.672 64.4773 191.458 64.2107 191.352 63.848C191.288 63.6133 191.224 63.2827 191.16 62.856C191.117 62.408 191.085 61.9173 191.064 61.384C191.042 60.8507 191.032 60.3173 191.032 59.784C191.032 59.2293 191.032 58.728 191.032 58.28V53.672C191.01 53.1813 191 52.648 191 52.072C191 51.496 191.085 50.9733 191.256 50.504C191.405 50.0987 191.64 49.8427 191.96 49.736C192.28 49.608 192.61 49.5547 192.952 49.576C193.336 49.576 193.634 49.6827 193.848 49.896C194.082 50.088 194.253 50.3333 194.36 50.632C194.466 50.9093 194.53 51.2293 194.552 51.592C194.573 51.9333 194.594 52.264 194.616 52.584C194.85 52.0507 195.128 51.6133 195.448 51.272C195.789 50.9093 196.269 50.6747 196.888 50.568C198.466 50.2693 199.725 50.6747 200.664 51.784C201.09 51.3573 201.634 51.0053 202.296 50.728C202.808 50.536 203.33 50.4507 203.864 50.472C204.397 50.472 204.898 50.568 205.368 50.76C205.858 50.952 206.296 51.2293 206.68 51.592C207.085 51.9547 207.405 52.392 207.64 52.904C207.96 53.5867 208.141 54.344 208.184 55.176C208.226 56.008 208.269 56.7973 208.312 57.544ZM222.008 60.616C222.264 60.552 222.52 60.5093 222.776 60.488C223.054 60.4667 223.299 60.4987 223.512 60.584C223.747 60.6693 223.939 60.8187 224.088 61.032C224.238 61.224 224.312 61.5013 224.312 61.864C224.312 62.12 224.248 62.3653 224.12 62.6C223.992 62.8347 223.832 63.048 223.64 63.24C223.448 63.432 223.235 63.6027 223 63.752C222.766 63.88 222.542 63.9867 222.328 64.072C221.71 64.3493 220.995 64.5627 220.184 64.712C219.395 64.8613 218.574 64.9147 217.72 64.872C216.568 64.8293 215.459 64.6053 214.392 64.2C213.347 63.7733 212.526 63.08 211.928 62.12C211.374 61.1813 211.043 60.136 210.936 58.984C210.83 57.832 210.883 56.744 211.096 55.72C211.331 54.4827 211.726 53.48 212.28 52.712C212.856 51.9227 213.539 51.2933 214.328 50.824C215.288 50.2693 216.366 49.9813 217.56 49.96C218.755 49.9387 219.896 50.1733 220.984 50.664C221.71 50.984 222.36 51.4213 222.936 51.976C223.512 52.5093 223.95 53.16 224.248 53.928C224.334 54.12 224.398 54.3547 224.44 54.632C224.504 54.9093 224.547 55.208 224.568 55.528C224.59 55.8267 224.59 56.1253 224.568 56.424C224.547 56.7227 224.494 56.9893 224.408 57.224C224.28 57.608 224.12 57.9067 223.928 58.12C223.736 58.3333 223.491 58.4933 223.192 58.6C222.894 58.7067 222.531 58.7813 222.104 58.824C221.699 58.8453 221.208 58.8667 220.632 58.888C220.12 58.9093 219.64 58.92 219.192 58.92C218.744 58.92 218.286 58.92 217.816 58.92C217.347 58.8987 216.856 58.888 216.344 58.888C215.854 58.8667 215.299 58.8453 214.68 58.824C214.616 59.2507 214.67 59.624 214.84 59.944C215.032 60.2427 215.288 60.4987 215.608 60.712C215.928 60.904 216.291 61.0533 216.696 61.16C217.102 61.2667 217.496 61.3307 217.88 61.352C218.606 61.3947 219.299 61.3413 219.96 61.192C220.622 61.0213 221.304 60.8293 222.008 60.616ZM220.632 54.408C220.227 53.9387 219.8 53.5973 219.352 53.384C219.011 53.2347 218.648 53.1707 218.264 53.192C217.902 53.192 217.55 53.2453 217.208 53.352C216.59 53.5013 216.067 53.8213 215.64 54.312C215.598 54.3547 215.523 54.4613 215.416 54.632C215.31 54.7813 215.203 54.9413 215.096 55.112C215.011 55.2827 214.947 55.4427 214.904 55.592C214.862 55.7413 214.883 55.816 214.968 55.816H221.24C221.219 55.5173 221.166 55.272 221.08 55.08C220.995 54.8667 220.846 54.6427 220.632 54.408Z" fill="black"/>
<path d="M57.768 101.696C57.7467 101.952 57.7147 102.219 57.672 102.496C57.6293 102.773 57.5547 103.029 57.448 103.264C57.3413 103.52 57.2027 103.712 57.032 103.84C56.7973 104.053 56.52 104.171 56.2 104.192C55.9013 104.299 55.6133 104.331 55.336 104.288C55.0587 104.245 54.8027 104.171 54.568 104.064C54.2693 103.872 54.0453 103.648 53.896 103.392C53.768 103.115 53.672 102.827 53.608 102.528C53.544 102.229 53.512 101.92 53.512 101.6C53.512 101.28 53.512 100.981 53.512 100.704V98.208L53.48 93.312C53.48 92.9707 53.48 92.704 53.48 92.512C53.48 92.32 53.48 92.1493 53.48 92C53.48 91.8293 53.4693 91.648 53.448 91.456C53.448 91.2427 53.448 90.944 53.448 90.56C53.448 90.496 53.448 90.3893 53.448 90.24C53.4693 90.0693 53.4587 89.632 53.416 88.928C52.584 90.3147 51.8907 91.4347 51.336 92.288C50.8027 93.12 50.344 93.7707 49.96 94.24C49.5973 94.688 49.2773 94.9973 49 95.168C48.7227 95.3173 48.4347 95.4027 48.136 95.424C47.9653 95.4453 47.7947 95.4133 47.624 95.328C47.4533 95.2427 47.2827 95.136 47.112 95.008C46.9627 94.88 46.8133 94.752 46.664 94.624C46.536 94.4747 46.4293 94.336 46.344 94.208C45.832 93.568 45.256 92.8 44.616 91.904C43.976 91.008 43.3147 89.92 42.632 88.64C42.632 88.6613 42.6213 89.0133 42.6 89.696C42.6 90.3787 42.6 91.232 42.6 92.256C42.6 93.2587 42.5893 94.3467 42.568 95.52C42.568 96.672 42.5573 97.7493 42.536 98.752C42.536 99.7547 42.5253 100.597 42.504 101.28C42.4827 101.941 42.4613 102.272 42.44 102.272C42.44 102.635 42.3547 102.976 42.184 103.296C42.0133 103.595 41.7787 103.84 41.48 104.032C41.2027 104.224 40.872 104.331 40.488 104.352C40.104 104.373 39.688 104.267 39.24 104.032C38.9627 103.861 38.7493 103.616 38.6 103.296C38.472 102.976 38.3867 102.677 38.344 102.4C38.3227 102.101 38.3013 101.813 38.28 101.536C38.28 101.259 38.28 100.971 38.28 100.672L38.312 98.176L38.344 93.248V88.96C38.344 87.104 38.408 85.28 38.536 83.488C38.536 83.2533 38.5573 83.04 38.6 82.848C38.664 82.6347 38.7387 82.432 38.824 82.24C38.9947 81.8987 39.2187 81.6427 39.496 81.472C39.816 81.28 40.1573 81.184 40.52 81.184C40.6693 81.184 40.808 81.1947 40.936 81.216C41.0853 81.216 41.224 81.2267 41.352 81.248C41.7787 81.3333 42.1413 81.5893 42.44 82.016C42.76 82.4213 43.0587 82.7733 43.336 83.072C43.5067 83.264 43.688 83.4987 43.88 83.776C44.072 84.0533 44.264 84.3413 44.456 84.64C44.648 84.9387 44.8293 85.2267 45 85.504C45.1707 85.7813 45.32 86.0267 45.448 86.24C46.0027 87.136 46.4933 87.9573 46.92 88.704C47.368 89.4507 47.784 90.0907 48.168 90.624C48.232 90.56 48.3067 90.4747 48.392 90.368C48.4773 90.24 48.5627 90.112 48.648 89.984C48.7547 89.8347 48.84 89.696 48.904 89.568C48.9893 89.44 49.0533 89.3333 49.096 89.248C49.3093 88.9067 49.5227 88.576 49.736 88.256C49.9493 87.9147 50.1733 87.5627 50.408 87.2C50.664 86.816 50.92 86.4 51.176 85.952C51.4533 85.504 51.7733 84.992 52.136 84.416C52.2853 84.16 52.4773 83.8507 52.712 83.488C52.9467 83.1253 53.2133 82.7733 53.512 82.432C53.8107 82.0907 54.12 81.8027 54.44 81.568C54.7813 81.312 55.1227 81.184 55.464 81.184C55.6347 81.184 55.784 81.1947 55.912 81.216C56.04 81.216 56.168 81.2267 56.296 81.248C56.552 81.2693 56.7973 81.3867 57.032 81.6C57.2027 81.7707 57.3307 81.952 57.416 82.144C57.5013 82.4213 57.5547 82.656 57.576 82.848C57.5973 82.9973 57.608 83.136 57.608 83.264C57.6293 83.392 57.64 83.52 57.64 83.648C57.64 84.8427 57.6507 86.0267 57.672 87.2C57.6933 88.3733 57.704 89.5573 57.704 90.752C57.704 92.2027 57.704 93.696 57.704 95.232C57.7253 96.768 57.736 98.2613 57.736 99.712C57.736 100.011 57.7467 100.331 57.768 100.672C57.7893 101.013 57.7893 101.355 57.768 101.696ZM64.1178 90.528C64.7578 90.208 65.4298 89.984 66.1338 89.856C66.8378 89.7067 67.5311 89.6747 68.2138 89.76C68.9178 89.824 69.5898 90.0053 70.2298 90.304C70.8698 90.5813 71.4671 90.9867 72.0218 91.52C72.5764 92.0747 73.0031 92.6827 73.3018 93.344C73.6004 94.0053 73.8138 94.7413 73.9418 95.552C74.0271 96.1067 74.1658 96.6187 74.3578 97.088C74.5498 97.5573 74.7524 98.0267 74.9658 98.496C75.2004 98.9653 75.4138 99.4347 75.6058 99.904C75.8191 100.373 75.9898 100.864 76.1178 101.376C76.2244 101.867 76.1817 102.347 75.9897 102.816C75.8191 103.264 75.4564 103.541 74.9018 103.648C74.5818 103.712 74.2724 103.691 73.9738 103.584C73.6964 103.456 73.4404 103.285 73.2058 103.072C72.9711 102.837 72.7578 102.592 72.5658 102.336C72.3951 102.059 72.2351 101.803 72.0858 101.568C71.5951 102.208 71.0618 102.709 70.4858 103.072C69.9098 103.413 69.2164 103.637 68.4058 103.744C67.7231 103.829 67.0724 103.851 66.4538 103.808C65.8351 103.765 65.1738 103.648 64.4698 103.456C63.5524 103.221 62.7951 102.816 62.1978 102.24C61.6218 101.643 61.1738 100.96 60.8538 100.192C60.5551 99.4027 60.3951 98.56 60.3738 97.664C60.3524 96.768 60.4591 95.8827 60.6938 95.008C60.9924 93.856 61.4404 92.9173 62.0378 92.192C62.6351 91.4667 63.3284 90.912 64.1178 90.528ZM64.9178 94.272C64.6191 94.5707 64.3844 94.9227 64.2138 95.328C64.0431 95.7333 63.9364 96.16 63.8938 96.608C63.8724 97.056 63.9151 97.504 64.0218 97.952C64.1284 98.4 64.2991 98.7947 64.5338 99.136C64.7471 99.4347 65.1098 99.6907 65.6218 99.904C66.1338 100.096 66.6671 100.213 67.2218 100.256C67.8618 100.299 68.4164 100.128 68.8858 99.744C69.3764 99.36 69.7391 98.88 69.9738 98.304C70.2298 97.7067 70.3471 97.0773 70.3258 96.416C70.3044 95.7333 70.1231 95.1147 69.7818 94.56C69.5258 94.1547 69.1844 93.856 68.7578 93.664C68.3524 93.472 67.9151 93.376 67.4458 93.376C66.9764 93.3547 66.5071 93.4293 66.0378 93.6C65.5898 93.7493 65.2164 93.9733 64.9178 94.272ZM78.812 92.576C78.812 92.0853 78.8013 91.5627 78.78 91.008C78.78 90.4533 78.876 89.952 79.068 89.504C79.2387 89.0987 79.516 88.8107 79.9 88.64C80.3053 88.448 80.7 88.4053 81.084 88.512C81.468 88.576 81.7667 88.6933 81.98 88.864C82.1933 89.0347 82.3427 89.2373 82.428 89.472C82.5347 89.6853 82.5987 89.9413 82.62 90.24C82.6413 90.5173 82.6627 90.7947 82.684 91.072C82.8973 90.688 83.164 90.3787 83.484 90.144C83.804 89.9093 84.1347 89.7173 84.476 89.568C84.8173 89.4187 85.1373 89.312 85.436 89.248C85.756 89.184 86.0013 89.152 86.172 89.152C86.9827 89.152 87.7827 89.3333 88.572 89.696C89.3827 90.0373 90.0547 90.528 90.588 91.168C90.8867 91.552 91.1107 91.9573 91.26 92.384C91.4307 92.7893 91.548 93.216 91.612 93.664C91.6973 94.112 91.7507 94.5707 91.772 95.04C91.7933 95.488 91.8147 95.9467 91.836 96.416C91.9427 97.7813 91.9427 99.136 91.836 100.48C91.8147 100.757 91.804 101.077 91.804 101.44C91.804 101.803 91.772 102.165 91.708 102.528C91.6653 102.869 91.5693 103.179 91.42 103.456C91.292 103.712 91.068 103.872 90.748 103.936C90.3 104.043 89.9267 104.064 89.628 104C89.3507 103.957 89.1267 103.861 88.956 103.712C88.7853 103.563 88.6573 103.371 88.572 103.136C88.4867 102.901 88.412 102.635 88.348 102.336C88.3053 102.101 88.2627 101.835 88.22 101.536C88.1987 101.216 88.1773 100.896 88.156 100.576C88.156 100.256 88.1453 99.9467 88.124 99.648C88.124 99.328 88.124 99.04 88.124 98.784C88.124 98.3787 88.1133 97.9307 88.092 97.44C88.0707 96.9493 88.0707 96.4907 88.092 96.064C88.092 95.0613 87.8253 94.304 87.292 93.792C86.78 93.2587 86.076 93.0347 85.18 93.12C84.4973 93.2053 83.9 93.4827 83.388 93.952C82.876 94.4 82.6307 94.9867 82.652 95.712C82.652 95.9893 82.652 96.2453 82.652 96.48C82.652 96.7147 82.6413 96.9493 82.62 97.184C82.62 97.4187 82.62 97.6747 82.62 97.952C82.62 98.2293 82.62 98.5387 82.62 98.88C82.62 99.584 82.62 100.331 82.62 101.12C82.62 101.888 82.524 102.517 82.332 103.008C82.1613 103.52 81.8733 103.872 81.468 104.064C81.0627 104.256 80.5827 104.203 80.028 103.904C79.7933 103.776 79.6013 103.605 79.452 103.392C79.324 103.157 79.2173 102.912 79.132 102.656C79.068 102.4 79.0253 102.144 79.004 101.888C78.9827 101.611 78.9613 101.355 78.94 101.12C78.876 100.416 78.8333 99.7653 78.812 99.168C78.812 98.5493 78.812 97.888 78.812 97.184V92.576ZM98.2428 90.528C98.8828 90.208 99.5548 89.984 100.259 89.856C100.963 89.7067 101.656 89.6747 102.339 89.76C103.043 89.824 103.715 90.0053 104.355 90.304C104.995 90.5813 105.592 90.9867 106.147 91.52C106.701 92.0747 107.128 92.6827 107.427 93.344C107.725 94.0053 107.939 94.7413 108.067 95.552C108.152 96.1067 108.291 96.6187 108.483 97.088C108.675 97.5573 108.877 98.0267 109.091 98.496C109.325 98.9653 109.539 99.4347 109.731 99.904C109.944 100.373 110.115 100.864 110.243 101.376C110.349 101.867 110.307 102.347 110.115 102.816C109.944 103.264 109.581 103.541 109.027 103.648C108.707 103.712 108.397 103.691 108.099 103.584C107.821 103.456 107.565 103.285 107.331 103.072C107.096 102.837 106.883 102.592 106.691 102.336C106.52 102.059 106.36 101.803 106.211 101.568C105.72 102.208 105.187 102.709 104.611 103.072C104.035 103.413 103.341 103.637 102.531 103.744C101.848 103.829 101.197 103.851 100.579 103.808C99.9601 103.765 99.2988 103.648 98.5948 103.456C97.6774 103.221 96.9201 102.816 96.3228 102.24C95.7468 101.643 95.2988 100.96 94.9788 100.192C94.6801 99.4027 94.5201 98.56 94.4988 97.664C94.4774 96.768 94.5841 95.8827 94.8188 95.008C95.1174 93.856 95.5654 92.9173 96.1628 92.192C96.7601 91.4667 97.4534 90.912 98.2428 90.528ZM99.0428 94.272C98.7441 94.5707 98.5094 94.9227 98.3388 95.328C98.1681 95.7333 98.0614 96.16 98.0188 96.608C97.9974 97.056 98.0401 97.504 98.1468 97.952C98.2534 98.4 98.4241 98.7947 98.6588 99.136C98.8721 99.4347 99.2348 99.6907 99.7468 99.904C100.259 100.096 100.792 100.213 101.347 100.256C101.987 100.299 102.541 100.128 103.011 99.744C103.501 99.36 103.864 98.88 104.099 98.304C104.355 97.7067 104.472 97.0773 104.451 96.416C104.429 95.7333 104.248 95.1147 103.907 94.56C103.651 94.1547 103.309 93.856 102.883 93.664C102.477 93.472 102.04 93.376 101.571 93.376C101.101 93.3547 100.632 93.4293 100.163 93.6C99.7148 93.7493 99.3414 93.9733 99.0428 94.272ZM126.185 97.952C126.185 98.6347 126.164 99.3707 126.121 100.16C126.1 100.949 126.068 101.685 126.025 102.368C126.025 103.008 125.993 103.648 125.929 104.288C125.886 104.843 125.801 105.44 125.673 106.08C125.545 106.741 125.364 107.349 125.129 107.904C124.83 108.629 124.425 109.248 123.913 109.76C123.401 110.293 122.74 110.677 121.929 110.912C121.246 111.083 120.606 111.189 120.009 111.232C119.412 111.296 118.772 111.285 118.089 111.2C117.641 111.136 117.161 111.008 116.649 110.816C116.137 110.645 115.657 110.421 115.209 110.144C114.761 109.867 114.366 109.536 114.025 109.152C113.684 108.789 113.449 108.373 113.321 107.904C113.172 107.328 113.161 106.827 113.289 106.4C113.438 105.973 113.662 105.664 113.961 105.472C114.26 105.28 114.612 105.248 115.017 105.376C115.422 105.504 115.806 105.835 116.169 106.368C116.425 106.752 116.798 107.061 117.289 107.296C117.78 107.531 118.302 107.669 118.857 107.712C119.412 107.755 119.945 107.68 120.457 107.488C120.99 107.317 121.406 107.008 121.705 106.56C121.918 106.24 122.068 105.781 122.153 105.184C122.26 104.587 122.324 104 122.345 103.424C121.257 103.872 120.137 104.043 118.985 103.936C117.854 103.808 116.82 103.456 115.881 102.88C114.964 102.283 114.217 101.493 113.641 100.512C113.086 99.5093 112.852 98.3787 112.937 97.12C113.001 96.032 113.225 95.008 113.609 94.048C114.014 93.088 114.676 92.288 115.593 91.648C116.34 91.136 117.182 90.8053 118.121 90.656C119.06 90.4853 119.966 90.4 120.841 90.4C121.353 90.4 121.854 90.4 122.345 90.4C122.857 90.4 123.326 90.464 123.753 90.592C124.18 90.72 124.564 90.9333 124.905 91.232C125.246 91.5307 125.502 91.968 125.673 92.544C125.95 93.44 126.1 94.3253 126.121 95.2C126.164 96.0747 126.185 96.992 126.185 97.952ZM120.009 100.608C120.222 100.608 120.425 100.587 120.617 100.544C120.83 100.501 121.033 100.448 121.225 100.384C121.588 100.256 121.854 100.085 122.025 99.872C122.217 99.6587 122.345 99.424 122.409 99.168C122.473 98.8907 122.494 98.592 122.473 98.272C122.473 97.952 122.473 97.6213 122.473 97.28C122.473 97.0027 122.462 96.6933 122.441 96.352C122.441 96.0107 122.42 95.6907 122.377 95.392C122.334 95.072 122.27 94.7947 122.185 94.56C122.1 94.3253 121.972 94.176 121.801 94.112C121.502 94.0267 121.161 93.9733 120.777 93.952C120.393 93.9093 120.009 93.9093 119.625 93.952C119.241 93.9733 118.868 94.048 118.505 94.176C118.164 94.2827 117.876 94.432 117.641 94.624C117.321 94.9013 117.076 95.2427 116.905 95.648C116.734 96.0533 116.628 96.48 116.585 96.928C116.564 97.376 116.596 97.8133 116.681 98.24C116.788 98.6667 116.969 99.0507 117.225 99.392C117.524 99.8187 117.929 100.128 118.441 100.32C118.953 100.512 119.476 100.608 120.009 100.608ZM139.852 99.616C140.108 99.552 140.364 99.5093 140.62 99.488C140.897 99.4667 141.143 99.4987 141.356 99.584C141.591 99.6693 141.783 99.8187 141.932 100.032C142.081 100.224 142.156 100.501 142.156 100.864C142.156 101.12 142.092 101.365 141.964 101.6C141.836 101.835 141.676 102.048 141.484 102.24C141.292 102.432 141.079 102.603 140.844 102.752C140.609 102.88 140.385 102.987 140.172 103.072C139.553 103.349 138.839 103.563 138.028 103.712C137.239 103.861 136.417 103.915 135.564 103.872C134.412 103.829 133.303 103.605 132.236 103.2C131.191 102.773 130.369 102.08 129.772 101.12C129.217 100.181 128.887 99.136 128.78 97.984C128.673 96.832 128.727 95.744 128.94 94.72C129.175 93.4827 129.569 92.48 130.124 91.712C130.7 90.9227 131.383 90.2933 132.172 89.824C133.132 89.2693 134.209 88.9813 135.404 88.96C136.599 88.9387 137.74 89.1733 138.828 89.664C139.553 89.984 140.204 90.4213 140.78 90.976C141.356 91.5093 141.793 92.16 142.092 92.928C142.177 93.12 142.241 93.3547 142.284 93.632C142.348 93.9093 142.391 94.208 142.412 94.528C142.433 94.8267 142.433 95.1253 142.412 95.424C142.391 95.7227 142.337 95.9893 142.252 96.224C142.124 96.608 141.964 96.9067 141.772 97.12C141.58 97.3333 141.335 97.4933 141.036 97.6C140.737 97.7067 140.375 97.7813 139.948 97.824C139.543 97.8453 139.052 97.8667 138.476 97.888C137.964 97.9093 137.484 97.92 137.036 97.92C136.588 97.92 136.129 97.92 135.66 97.92C135.191 97.8987 134.7 97.888 134.188 97.888C133.697 97.8667 133.143 97.8453 132.524 97.824C132.46 98.2507 132.513 98.624 132.684 98.944C132.876 99.2427 133.132 99.4987 133.452 99.712C133.772 99.904 134.135 100.053 134.54 100.16C134.945 100.267 135.34 100.331 135.724 100.352C136.449 100.395 137.143 100.341 137.804 100.192C138.465 100.021 139.148 99.8293 139.852 99.616ZM138.476 93.408C138.071 92.9387 137.644 92.5973 137.196 92.384C136.855 92.2347 136.492 92.1707 136.108 92.192C135.745 92.192 135.393 92.2453 135.052 92.352C134.433 92.5013 133.911 92.8213 133.484 93.312C133.441 93.3547 133.367 93.4613 133.26 93.632C133.153 93.7813 133.047 93.9413 132.94 94.112C132.855 94.2827 132.791 94.4427 132.748 94.592C132.705 94.7413 132.727 94.816 132.812 94.816H139.084C139.063 94.5173 139.009 94.272 138.924 94.08C138.839 93.8667 138.689 93.6427 138.476 93.408ZM167.999 89.728C168.191 90.0267 168.277 90.3467 168.255 90.688C168.255 91.1787 168.17 91.6053 167.999 91.968C167.957 92.0747 167.893 92.2133 167.807 92.384C167.743 92.5547 167.669 92.736 167.583 92.928C167.519 93.12 167.445 93.3013 167.359 93.472C167.274 93.6427 167.21 93.7707 167.167 93.856L167.103 94.016C166.805 94.6773 166.517 95.3173 166.239 95.936C165.962 96.5547 165.653 97.216 165.311 97.92C164.97 98.6027 164.639 99.2747 164.319 99.936C164.021 100.576 163.722 101.205 163.423 101.824C163.338 101.995 163.263 102.165 163.199 102.336C163.135 102.485 163.05 102.645 162.943 102.816L161.407 106.112C161.13 106.667 160.863 107.211 160.607 107.744C160.373 108.277 160.106 108.811 159.807 109.344C159.743 109.451 159.679 109.547 159.615 109.632C159.573 109.739 159.53 109.845 159.487 109.952C159.338 110.208 159.114 110.453 158.815 110.688C158.538 110.944 158.239 111.083 157.919 111.104C157.343 111.147 156.842 110.976 156.415 110.592C156.159 110.443 155.957 110.229 155.807 109.952C155.722 109.76 155.679 109.515 155.679 109.216C155.701 109.088 155.711 108.96 155.711 108.832C155.733 108.725 155.754 108.619 155.775 108.512C155.818 108.405 155.85 108.299 155.871 108.192C155.893 108.085 155.925 108 155.967 107.936C156.031 107.765 156.085 107.68 156.127 107.68L158.463 102.624C158.357 102.389 158.25 102.155 158.143 101.92C158.037 101.664 157.941 101.44 157.855 101.248C157.578 100.587 157.279 99.8933 156.959 99.168C156.661 98.4213 156.351 97.6853 156.031 96.96C155.711 96.2133 155.381 95.488 155.039 94.784C154.698 94.08 154.357 93.408 154.015 92.768C153.887 92.5547 153.77 92.3307 153.663 92.096C153.557 91.84 153.471 91.5947 153.407 91.36C153.343 91.104 153.322 90.848 153.343 90.592C153.365 90.336 153.461 90.08 153.631 89.824C153.802 89.504 154.026 89.28 154.303 89.152C154.581 89.0027 154.869 88.9387 155.167 88.96C155.487 88.96 155.786 89.024 156.063 89.152C156.341 89.28 156.565 89.4507 156.735 89.664C157.098 90.048 157.386 90.4747 157.599 90.944C157.813 91.4133 158.015 91.8933 158.207 92.384C158.613 93.2373 159.029 94.1333 159.455 95.072C159.882 96.0107 160.309 96.928 160.735 97.824L162.399 94.304C162.57 93.9627 162.719 93.632 162.847 93.312C162.997 92.992 163.146 92.6827 163.295 92.384C163.466 92.0213 163.626 91.648 163.775 91.264C163.946 90.88 164.138 90.528 164.351 90.208C164.394 90.1227 164.437 90.048 164.479 89.984C164.522 89.92 164.565 89.8453 164.607 89.76C164.799 89.504 164.97 89.3013 165.119 89.152C165.226 89.0667 165.311 89.0027 165.375 88.96C165.461 88.896 165.557 88.8533 165.663 88.832C165.813 88.7893 165.951 88.768 166.079 88.768C166.229 88.7467 166.367 88.7467 166.495 88.768C166.709 88.832 166.965 88.928 167.263 89.056C167.583 89.184 167.829 89.408 167.999 89.728ZM174.283 89.536C174.987 89.1947 175.723 88.9493 176.491 88.8C177.259 88.6507 178.016 88.6187 178.763 88.704C179.531 88.7893 180.267 88.992 180.971 89.312C181.696 89.632 182.358 90.08 182.955 90.656C183.446 91.1467 183.872 91.744 184.235 92.448C184.598 93.1307 184.864 93.8027 185.035 94.464C185.398 95.6373 185.451 96.8213 185.195 98.016C184.939 99.2107 184.502 100.32 183.883 101.344C183.584 101.813 183.211 102.24 182.763 102.624C182.336 102.987 181.878 103.285 181.387 103.52C180.747 103.819 180.054 104.021 179.307 104.128C178.56 104.256 177.835 104.288 177.131 104.224C175.851 104.16 174.72 103.84 173.739 103.264C172.779 102.688 172 101.952 171.403 101.056C170.827 100.16 170.443 99.1467 170.251 98.016C170.08 96.864 170.155 95.6907 170.475 94.496C170.816 93.216 171.307 92.1813 171.947 91.392C172.608 90.5813 173.387 89.9627 174.283 89.536ZM175.243 93.824C174.923 94.1227 174.678 94.496 174.507 94.944C174.336 95.392 174.23 95.8613 174.187 96.352C174.144 96.8213 174.176 97.3013 174.283 97.792C174.411 98.2613 174.603 98.688 174.859 99.072C175.072 99.392 175.456 99.6587 176.011 99.872C176.566 100.085 177.142 100.213 177.739 100.256C178.422 100.299 179.019 100.117 179.531 99.712C180.043 99.2853 180.427 98.7627 180.683 98.144C180.96 97.5253 181.088 96.8533 181.067 96.128C181.046 95.4027 180.854 94.7413 180.491 94.144C180.235 93.7173 179.872 93.408 179.403 93.216C178.955 93.0027 178.475 92.896 177.963 92.896C177.472 92.8747 176.982 92.9493 176.491 93.12C176 93.2693 175.584 93.504 175.243 93.824ZM201.057 96.384C201.014 97.088 200.972 97.8027 200.929 98.528C200.886 99.232 200.769 99.9147 200.577 100.576C200.406 101.237 200.129 101.835 199.745 102.368C199.382 102.901 198.86 103.328 198.177 103.648C197.58 103.947 196.94 104.149 196.257 104.256C195.574 104.384 194.892 104.437 194.209 104.416C193.526 104.395 192.865 104.288 192.225 104.096C191.585 103.925 191.009 103.68 190.497 103.36C189.985 103.04 189.569 102.624 189.249 102.112C188.929 101.6 188.673 101.045 188.481 100.448C188.31 99.8507 188.193 99.232 188.129 98.592C188.065 97.952 188.022 97.3547 188.001 96.8C187.916 95.328 187.916 93.8773 188.001 92.448C188.001 92.1707 188.001 91.8613 188.001 91.52C188.001 91.1573 188.022 90.8053 188.065 90.464C188.129 90.1227 188.225 89.8133 188.353 89.536C188.481 89.2373 188.694 89.0133 188.993 88.864C189.633 88.5227 190.22 88.5013 190.753 88.8C191.308 89.0987 191.638 89.7173 191.745 90.656C191.809 91.1467 191.83 91.6907 191.809 92.288C191.809 92.8853 191.83 93.4293 191.873 93.92C191.894 94.6453 191.916 95.4347 191.937 96.288C191.958 97.12 192.076 97.8667 192.289 98.528C192.524 99.1893 192.897 99.6907 193.409 100.032C193.942 100.352 194.732 100.363 195.777 100.064C196.268 99.9147 196.588 99.5413 196.737 98.944C196.908 98.3467 196.993 97.4613 196.993 96.288C196.993 95.776 196.982 95.2107 196.961 94.592C196.94 93.9733 196.929 93.3653 196.929 92.768C196.929 92.1493 196.94 91.584 196.961 91.072C197.004 90.5387 197.068 90.1333 197.153 89.856C197.26 89.472 197.484 89.184 197.825 88.992C198.166 88.8 198.529 88.704 198.913 88.704C199.297 88.6827 199.66 88.7573 200.001 88.928C200.342 89.0987 200.577 89.376 200.705 89.76C200.833 90.1013 200.918 90.5387 200.961 91.072C201.025 91.584 201.068 92.1493 201.089 92.768C201.11 93.3653 201.11 93.984 201.089 94.624C201.089 95.2427 201.078 95.8293 201.057 96.384ZM203.718 92.672C203.718 92.416 203.718 92.128 203.718 91.808C203.718 91.4667 203.729 91.1253 203.75 90.784C203.772 90.4213 203.804 90.08 203.846 89.76C203.91 89.4187 203.996 89.12 204.102 88.864C204.273 88.48 204.54 88.224 204.902 88.096C205.265 87.9467 205.66 87.8827 206.086 87.904C206.534 87.904 206.886 87.9787 207.142 88.128C207.398 88.2773 207.59 88.48 207.718 88.736C207.846 88.9707 207.921 89.248 207.942 89.568C207.985 89.8667 208.006 90.1867 208.006 90.528C208.198 90.1867 208.454 89.9093 208.774 89.696C209.116 89.4827 209.457 89.312 209.798 89.184C210.14 89.056 210.449 88.9707 210.726 88.928C211.004 88.864 211.164 88.832 211.206 88.832C211.74 88.7893 212.22 88.7787 212.646 88.8C213.094 88.8213 213.585 88.9173 214.118 89.088C214.46 89.216 214.812 89.3973 215.174 89.632C215.537 89.8453 215.857 90.1013 216.134 90.4C216.412 90.6987 216.593 91.0293 216.678 91.392C216.785 91.7333 216.742 92.096 216.55 92.48C216.252 93.0133 215.921 93.28 215.558 93.28C215.196 93.2587 214.801 93.1947 214.374 93.088C214.14 93.0453 213.862 92.9493 213.542 92.8C213.222 92.6507 212.945 92.5547 212.71 92.512C211.985 92.4053 211.345 92.4587 210.79 92.672C210.236 92.8853 209.756 93.1413 209.35 93.44C208.881 93.8027 208.476 94.2187 208.134 94.688V99.296C208.134 99.872 208.124 100.469 208.102 101.088C208.102 101.707 208.017 102.272 207.846 102.784C207.697 103.275 207.43 103.68 207.046 104C206.684 104.299 206.15 104.427 205.446 104.384C205.062 104.363 204.721 104.181 204.422 103.84C204.124 103.477 203.942 103.125 203.878 102.784C203.836 102.464 203.804 102.08 203.782 101.632C203.761 101.184 203.74 100.715 203.718 100.224C203.718 99.7333 203.718 99.2427 203.718 98.752C203.718 98.24 203.718 97.7707 203.718 97.344V92.672ZM236.808 90.464C237.17 90.5707 237.405 90.7733 237.512 91.072C237.618 91.3493 237.65 91.648 237.608 91.968C237.48 92.6293 237.117 93.0347 236.52 93.184C236.178 93.2693 235.826 93.312 235.464 93.312C235.122 93.312 234.77 93.3227 234.408 93.344V100.736C234.408 101.248 234.376 101.771 234.312 102.304C234.312 102.496 234.258 102.699 234.152 102.912C234.109 103.019 234.077 103.083 234.056 103.104C234.056 103.147 234.034 103.211 233.992 103.296C233.864 103.531 233.693 103.723 233.48 103.872C233.01 104.128 232.509 104.192 231.976 104.064C231.656 104 231.41 103.893 231.24 103.744C231.048 103.595 230.909 103.413 230.824 103.2C230.781 103.093 230.749 102.987 230.728 102.88C230.706 102.773 230.674 102.667 230.632 102.56C230.61 102.453 230.589 102.357 230.568 102.272C230.568 102.165 230.568 102.08 230.568 102.016V100.16C230.568 99.0507 230.568 97.8987 230.568 96.704C230.589 95.5093 230.6 94.3573 230.6 93.248C230.109 93.2267 229.597 93.216 229.064 93.216C228.552 93.1947 228.178 93.0667 227.944 92.832C227.816 92.704 227.73 92.544 227.688 92.352C227.645 92.1387 227.624 91.9253 227.624 91.712C227.645 91.4987 227.688 91.3067 227.752 91.136C227.816 90.944 227.901 90.8053 228.008 90.72C228.285 90.464 228.53 90.3253 228.744 90.304C228.978 90.2613 229.266 90.2293 229.608 90.208C229.65 90.208 229.789 90.208 230.024 90.208C230.28 90.1867 230.44 90.176 230.504 90.176C230.525 89.4507 230.546 88.7253 230.568 88C230.589 87.2747 230.653 86.6133 230.76 86.016C230.888 85.3973 231.069 84.864 231.304 84.416C231.56 83.9467 231.944 83.5947 232.456 83.36C233.074 83.0827 233.778 82.912 234.568 82.848C235.357 82.784 236.072 82.88 236.712 83.136C237.01 83.2427 237.298 83.456 237.576 83.776C237.874 84.096 238.013 84.448 237.992 84.832C237.97 85.216 237.896 85.568 237.768 85.888C237.64 86.208 237.362 86.4213 236.936 86.528C236.744 86.5707 236.541 86.592 236.328 86.592C236.136 86.5707 235.933 86.56 235.72 86.56C235.506 86.56 235.304 86.592 235.112 86.656C234.941 86.6987 234.792 86.7947 234.664 86.944C234.557 87.072 234.482 87.2427 234.44 87.456C234.418 87.6693 234.397 87.8933 234.376 88.128C234.354 88.3627 234.344 88.5973 234.344 88.832C234.365 89.0453 234.376 89.2267 234.376 89.376V90.176C234.866 90.2187 235.314 90.2507 235.72 90.272C236.146 90.2933 236.509 90.3573 236.808 90.464ZM244.625 91.872C244.625 92.4693 244.625 93.1413 244.625 93.888C244.646 94.6347 244.657 95.4133 244.657 96.224C244.657 97.0133 244.657 97.8027 244.657 98.592C244.657 99.36 244.646 100.075 244.625 100.736C244.603 101.056 244.571 101.408 244.529 101.792C244.486 102.155 244.401 102.496 244.273 102.816C244.145 103.136 243.942 103.403 243.665 103.616C243.409 103.808 243.057 103.893 242.609 103.872C241.947 103.829 241.467 103.541 241.169 103.008C240.891 102.475 240.731 101.728 240.689 100.768C240.689 100.277 240.678 99.712 240.657 99.072C240.657 98.432 240.646 97.7813 240.625 97.12C240.625 96.4587 240.625 95.8187 240.625 95.2C240.625 94.56 240.625 93.984 240.625 93.472C240.625 93.1733 240.614 92.8107 240.593 92.384C240.593 91.9573 240.603 91.52 240.625 91.072C240.646 90.624 240.699 90.1973 240.785 89.792C240.87 89.3653 241.009 89.0133 241.201 88.736C241.35 88.5653 241.563 88.4373 241.841 88.352C242.118 88.2453 242.406 88.192 242.705 88.192C243.025 88.192 243.323 88.2453 243.601 88.352C243.899 88.4587 244.113 88.608 244.241 88.8C244.326 88.928 244.39 89.1093 244.433 89.344C244.475 89.5787 244.507 89.8453 244.529 90.144C244.571 90.4213 244.593 90.72 244.593 91.04C244.614 91.3387 244.625 91.616 244.625 91.872ZM243.409 85.408C242.747 85.5787 242.193 85.5147 241.745 85.216C241.318 84.896 241.051 84.4267 240.945 83.808C240.859 83.36 240.891 82.9653 241.041 82.624C241.19 82.2827 241.414 82.0267 241.713 81.856C242.011 81.664 242.353 81.5787 242.737 81.6C243.121 81.6213 243.505 81.7707 243.889 82.048C244.251 82.304 244.507 82.6027 244.657 82.944C244.827 83.2853 244.881 83.616 244.817 83.936C244.774 84.256 244.635 84.5547 244.401 84.832C244.166 85.088 243.835 85.28 243.409 85.408ZM252.005 101.44C251.983 101.547 251.962 101.653 251.941 101.76C251.941 101.845 251.941 101.941 251.941 102.048L251.749 102.72C251.706 102.805 251.674 102.859 251.653 102.88L251.557 103.072C251.45 103.307 251.258 103.499 250.981 103.648C250.469 103.904 249.925 103.968 249.349 103.84C248.986 103.797 248.698 103.691 248.485 103.52C248.271 103.371 248.122 103.189 248.037 102.976C247.951 102.763 247.887 102.549 247.845 102.336C247.781 102.123 247.749 101.931 247.749 101.76V83.84C247.749 83.6907 247.749 83.5627 247.749 83.456C247.77 83.328 247.791 83.2107 247.813 83.104C247.834 82.9547 247.855 82.8267 247.877 82.72C247.919 82.6133 247.962 82.496 248.005 82.368C248.069 82.1547 248.186 81.984 248.357 81.856C248.613 81.664 248.858 81.5573 249.093 81.536C249.242 81.4933 249.381 81.472 249.509 81.472C249.637 81.4507 249.786 81.44 249.957 81.44C250.255 81.44 250.597 81.5253 250.981 81.696C251.279 81.8667 251.493 82.1013 251.621 82.4C251.834 82.8267 251.941 83.2213 251.941 83.584C251.962 83.7973 251.973 84.1173 251.973 84.544C251.994 84.9707 252.005 85.2907 252.005 85.504V85.632C252.047 86.3147 252.069 86.976 252.069 87.616C252.069 88.2347 252.058 88.9173 252.037 89.664C252.037 90.3893 252.026 91.0933 252.005 91.776C252.005 92.4373 252.005 93.0987 252.005 93.76V100.48C252.005 100.565 252.005 100.651 252.005 100.736C252.026 100.8 252.037 100.875 252.037 100.96C252.037 101.173 252.026 101.333 252.005 101.44ZM265.696 99.616C265.952 99.552 266.208 99.5093 266.464 99.488C266.741 99.4667 266.986 99.4987 267.2 99.584C267.434 99.6693 267.626 99.8187 267.776 100.032C267.925 100.224 268 100.501 268 100.864C268 101.12 267.936 101.365 267.808 101.6C267.68 101.835 267.52 102.048 267.328 102.24C267.136 102.432 266.922 102.603 266.688 102.752C266.453 102.88 266.229 102.987 266.016 103.072C265.397 103.349 264.682 103.563 263.872 103.712C263.082 103.861 262.261 103.915 261.408 103.872C260.256 103.829 259.146 103.605 258.08 103.2C257.034 102.773 256.213 102.08 255.616 101.12C255.061 100.181 254.73 99.136 254.624 97.984C254.517 96.832 254.57 95.744 254.784 94.72C255.018 93.4827 255.413 92.48 255.968 91.712C256.544 90.9227 257.226 90.2933 258.016 89.824C258.976 89.2693 260.053 88.9813 261.248 88.96C262.442 88.9387 263.584 89.1733 264.672 89.664C265.397 89.984 266.048 90.4213 266.624 90.976C267.2 91.5093 267.637 92.16 267.936 92.928C268.021 93.12 268.085 93.3547 268.128 93.632C268.192 93.9093 268.234 94.208 268.256 94.528C268.277 94.8267 268.277 95.1253 268.256 95.424C268.234 95.7227 268.181 95.9893 268.096 96.224C267.968 96.608 267.808 96.9067 267.616 97.12C267.424 97.3333 267.178 97.4933 266.88 97.6C266.581 97.7067 266.218 97.7813 265.792 97.824C265.386 97.8453 264.896 97.8667 264.32 97.888C263.808 97.9093 263.328 97.92 262.88 97.92C262.432 97.92 261.973 97.92 261.504 97.92C261.034 97.8987 260.544 97.888 260.032 97.888C259.541 97.8667 258.986 97.8453 258.368 97.824C258.304 98.2507 258.357 98.624 258.528 98.944C258.72 99.2427 258.976 99.4987 259.296 99.712C259.616 99.904 259.978 100.053 260.384 100.16C260.789 100.267 261.184 100.331 261.568 100.352C262.293 100.395 262.986 100.341 263.648 100.192C264.309 100.021 264.992 99.8293 265.696 99.616ZM264.32 93.408C263.914 92.9387 263.488 92.5973 263.04 92.384C262.698 92.2347 262.336 92.1707 261.952 92.192C261.589 92.192 261.237 92.2453 260.896 92.352C260.277 92.5013 259.754 92.8213 259.328 93.312C259.285 93.3547 259.21 93.4613 259.104 93.632C258.997 93.7813 258.89 93.9413 258.784 94.112C258.698 94.2827 258.634 94.4427 258.592 94.592C258.549 94.7413 258.57 94.816 258.656 94.816H264.928C264.906 94.5173 264.853 94.272 264.768 94.08C264.682 93.8667 264.533 93.6427 264.32 93.408Z" fill="black"/>
</svg>
