<svg width="18" height="18" viewBox="0 0 18 18" fill="none" xmlns="http://www.w3.org/2000/svg">
<path d="M17.1413 5.59251C17.1056 5.49487 17.0503 5.40514 16.9787 5.32853C16.9071 5.25192 16.8206 5.18996 16.7242 5.14624C16.6279 5.10252 16.5236 5.07791 16.4174 5.07385C16.3112 5.06979 16.2053 5.08635 16.1057 5.12258C16.0061 5.15881 15.9149 5.21398 15.8374 5.28489C15.7599 5.35579 15.6976 5.44102 15.6541 5.53563C15.6106 5.63023 15.5868 5.73232 15.5841 5.83598C15.5814 5.93963 15.5998 6.04277 15.6383 6.13942C16.1203 7.4057 16.2202 8.78027 15.9261 10.1003C15.6321 11.4202 14.9564 12.6303 13.9792 13.5871C11.1639 16.3334 6.5838 16.3334 3.76931 13.5871C0.954832 10.8409 0.954832 6.37158 3.76931 3.62511C6.25134 1.20314 10.1296 0.925374 12.949 2.80204L12.233 3.0349C12.1331 3.06743 12.0407 3.11883 11.9611 3.1862C11.8815 3.25356 11.8163 3.33555 11.7692 3.4275C11.7221 3.51945 11.694 3.61955 11.6866 3.72209C11.6791 3.82462 11.6925 3.92759 11.7258 4.0251C11.7591 4.12261 11.8118 4.21276 11.8808 4.29041C11.9499 4.36805 12.0339 4.43167 12.1281 4.47763C12.2224 4.52358 12.325 4.55098 12.43 4.55825C12.5351 4.56552 12.6406 4.55252 12.7406 4.52L14.8198 3.84358C15.0027 3.78403 15.1575 3.6622 15.2559 3.50041C15.3543 3.33861 15.3897 3.14766 15.3556 2.96248L14.9276 0.640784C14.8891 0.43722 14.7696 0.256819 14.5951 0.139049C14.4207 0.0212779 14.2055 -0.0242738 13.9967 0.0123592C13.7879 0.0489922 13.6025 0.164827 13.481 0.334522C13.3595 0.504217 13.3119 0.713956 13.3485 0.917853L13.4061 1.23066C10.0169 -0.746247 5.54247 -0.319198 2.6349 2.51837C-0.805056 5.87511 -0.805056 11.3371 2.6349 14.6938C4.05971 16.0838 5.92909 16.9562 7.93235 17.166C9.93563 17.3758 11.9522 16.9104 13.6468 15.8472C15.3415 14.784 16.6123 13.1869 17.248 11.3214C17.8837 9.45585 17.8461 7.43425 17.1413 5.59251Z" fill="#F19224"/>
<path d="M6.46763 12.5195C6.68036 12.5195 6.88438 12.4371 7.03481 12.2903C7.18523 12.1435 7.26974 11.9444 7.26974 11.7368V6.25809C7.26971 6.11958 7.23202 5.98356 7.16051 5.86392C7.08901 5.74427 6.98625 5.64528 6.86272 5.57704C6.7392 5.50881 6.59933 5.47378 6.45739 5.47553C6.31546 5.47727 6.17654 5.51573 6.05482 5.58699L4.04952 6.76101C3.86777 6.86815 3.73698 7.04123 3.68581 7.24232C3.63464 7.44341 3.66727 7.65609 3.77655 7.83373C3.88583 8.01138 4.06283 8.13951 4.26876 8.19002C4.47469 8.24053 4.69275 8.20931 4.87513 8.1032L5.66551 7.64038V11.7368C5.66551 11.9444 5.75002 12.1435 5.90044 12.2903C6.05087 12.4371 6.25489 12.5195 6.46763 12.5195Z" fill="#F19224"/>
<path d="M10.8792 5.47546C9.30516 5.47546 8.07182 7.02245 8.07182 8.99752C8.07182 10.9726 9.30508 12.5196 10.8792 12.5196C12.4534 12.5196 13.6867 10.9726 13.6867 8.99752C13.6867 7.02249 12.4534 5.47546 10.8792 5.47546ZM10.8792 10.9542C10.3102 10.9542 9.67604 10.1507 9.67604 8.99752C9.67604 7.84431 10.3102 7.0408 10.8792 7.0408C11.4483 7.0408 12.0824 7.84427 12.0824 8.99752C12.0824 10.1508 11.4483 10.9542 10.8792 10.9542Z" fill="#F19224"/>
</svg>
