<svg width="23" height="23" viewBox="0 0 23 23" fill="none" xmlns="http://www.w3.org/2000/svg">
<path d="M21.2656 1.73438C19.7031 0.171875 17.2031 0.171875 15.7188 1.73438L12.8281 4.625C11.9688 4.23437 10.875 4.3125 10.1719 5.09375C9.23438 6.03125 9.23438 7.51563 10.1719 8.45313L3.45312 15.1719C2.98438 15.6406 2.75 16.2656 2.75 16.9688L1.1875 18.5312C0.25 19.4688 0.25 20.9531 1.1875 21.8906C1.73438 22.2031 2.28125 22.4375 2.90625 22.4375C3.53125 22.4375 4.07812 22.2031 4.54688 21.7344L6.10938 20.1719C6.73438 20.25 7.4375 19.9375 7.90625 19.4688L14.625 12.75C15.0938 13.2188 15.7188 13.4531 16.2656 13.4531C16.8906 13.4531 17.4375 13.2188 17.9062 12.75C18.6094 12.0469 18.7656 10.9531 18.375 10.0938L21.2656 7.20312C22.8281 5.71875 22.8281 3.21875 21.2656 1.73438ZM13.5313 11.7344L10.6406 14.625H6.10938L11.2656 9.46875L13.5313 11.7344Z" fill="white"/>
</svg>
