<svg width="19" height="19" viewBox="0 0 19 19" fill="none" xmlns="http://www.w3.org/2000/svg">
<path fill-rule="evenodd" clip-rule="evenodd" d="M11.305 1.58331C11.6373 1.5834 11.9612 1.68804 12.2307 1.88241C12.5002 2.07678 12.7018 2.35103 12.8068 2.66631L13.2367 3.95831H15.8333C16.0433 3.95831 16.2447 4.04172 16.3931 4.19019C16.5416 4.33865 16.625 4.54002 16.625 4.74998C16.625 4.95994 16.5416 5.16131 16.3931 5.30977C16.2447 5.45824 16.0433 5.54165 15.8333 5.54165L15.831 5.59785L15.1446 15.2111C15.1017 15.81 14.8336 16.3706 14.3941 16.7798C13.9546 17.189 13.3764 17.4166 12.7759 17.4166H6.22408C5.62357 17.4166 5.04538 17.189 4.60589 16.7798C4.1664 16.3706 3.89825 15.81 3.85542 15.2111L3.16904 5.59706C3.16761 5.57862 3.16682 5.56014 3.16667 5.54165C2.9567 5.54165 2.75534 5.45824 2.60687 5.30977C2.45841 5.16131 2.375 4.95994 2.375 4.74998C2.375 4.54002 2.45841 4.33865 2.60687 4.19019C2.75534 4.04172 2.9567 3.95831 3.16667 3.95831H5.76333L6.19321 2.66631C6.29826 2.3509 6.49993 2.07656 6.76962 1.88218C7.03931 1.6878 7.36335 1.58323 7.69579 1.58331H11.305ZM7.125 7.91665C6.93109 7.91667 6.74394 7.98786 6.59904 8.11671C6.45414 8.24556 6.36156 8.42311 6.33888 8.61569L6.33333 8.70831V13.4583C6.33356 13.6601 6.41082 13.8542 6.54934 14.0009C6.68786 14.1476 6.87717 14.2359 7.0786 14.2477C7.28004 14.2596 7.47838 14.194 7.63312 14.0645C7.78785 13.935 7.88729 13.7513 7.91113 13.5509L7.91667 13.4583V8.70831C7.91667 8.49835 7.83326 8.29699 7.68479 8.14852C7.53633 8.00005 7.33496 7.91665 7.125 7.91665ZM11.875 7.91665C11.665 7.91665 11.4637 8.00005 11.3152 8.14852C11.1667 8.29699 11.0833 8.49835 11.0833 8.70831V13.4583C11.0833 13.6683 11.1667 13.8696 11.3152 14.0181C11.4637 14.1666 11.665 14.25 11.875 14.25C12.085 14.25 12.2863 14.1666 12.4348 14.0181C12.5833 13.8696 12.6667 13.6683 12.6667 13.4583V8.70831C12.6667 8.49835 12.5833 8.29699 12.4348 8.14852C12.2863 8.00005 12.085 7.91665 11.875 7.91665ZM11.305 3.16665H7.695L7.43138 3.95831H11.5686L11.305 3.16665Z" fill="#F19224"/>
</svg>
