<svg width="16" height="16" viewBox="0 0 16 16" fill="none" xmlns="http://www.w3.org/2000/svg">
<rect width="16" height="16" rx="3" fill="#F2A229"/>
<path d="M9.96728 3.09568L13.8805 6.39106C13.9183 6.42289 13.9483 6.46103 13.9689 6.5032C13.9894 6.54537 14 6.5907 14 6.63651C14 6.68231 13.9894 6.72765 13.9689 6.76982C13.9483 6.81199 13.9183 6.85012 13.8805 6.88196L9.96728 10.1773C9.93151 10.208 9.88912 10.2323 9.84256 10.2487C9.796 10.265 9.74617 10.2732 9.69596 10.2728C9.59218 10.2728 9.49264 10.2369 9.41926 10.1729C9.34587 10.109 9.30464 10.0223 9.30464 9.93189V8.23193C5.80885 8.35465 4.33749 10.0592 4.27487 10.1319C4.22506 10.189 4.1563 10.2314 4.07791 10.2534C3.99952 10.2753 3.91528 10.2757 3.8366 10.2546C3.75811 10.2326 3.68961 10.1895 3.64089 10.1316C3.59217 10.0736 3.56571 10.0037 3.56528 9.93189C3.56528 6.28652 7.00368 5.16836 9.30464 5.05473V3.34113C9.30481 3.27408 9.32767 3.20857 9.37036 3.15279C9.41305 3.097 9.47368 3.05342 9.54465 3.0275C9.61492 3.0011 9.69261 2.99348 9.76786 3.00562C9.84311 3.01776 9.91252 3.04911 9.96728 3.09568ZM4.47836 3.45476C3.82106 3.45476 3.19068 3.68223 2.72589 4.08713C2.26111 4.49203 2 5.04119 2 5.6138V10.841C2 11.4136 2.26111 11.9627 2.72589 12.3676C3.19068 12.7725 3.82106 13 4.47836 13H10.4786C11.1359 13 11.7663 12.7725 12.2311 12.3676C12.6958 11.9627 12.957 11.4136 12.957 10.841V10.6137C12.957 10.5233 12.9157 10.4366 12.8423 10.3726C12.769 10.3087 12.6694 10.2728 12.5656 10.2728C12.4619 10.2728 12.3623 10.3087 12.2889 10.3726C12.2155 10.4366 12.1743 10.5233 12.1743 10.6137V10.841C12.1743 11.2327 11.9957 11.6085 11.6777 11.8855C11.3596 12.1626 10.9283 12.3182 10.4786 12.3182H4.47836C4.02863 12.3182 3.59731 12.1626 3.2793 11.8855C2.9613 11.6085 2.78264 11.2327 2.78264 10.841V5.6138C2.78264 5.22202 2.9613 4.84628 3.2793 4.56924C3.59731 4.2922 4.02863 4.13657 4.47836 4.13657H6.82628C6.93007 4.13657 7.0296 4.10065 7.10299 4.03672C7.17637 3.97279 7.2176 3.88608 7.2176 3.79566C7.2176 3.70525 7.17637 3.61854 7.10299 3.55461C7.0296 3.49068 6.93007 3.45476 6.82628 3.45476H4.47836Z" fill="#F3F2F9"/>
</svg>
